<?xml version="1.0" encoding="UTF-8"?>
<svg id="Calque_1" data-name="Calque 1" xmlns="http://www.w3.org/2000/svg" version="1.1" viewBox="0 0 500 500">
  <defs>
    <style>
      .cls-1 {
        fill: #000;
        stroke-width: 0px;
      }
    </style>
  </defs>
  <path class="cls-1" d="M84.2202548,240.3170546v-4.7347512h-9.4695024v-4.7347512h-4.7347512v-9.4695024h-4.7347512v-33.1432584h4.7347512v-9.4695024h4.7347512v-4.7347512h9.4695024v-4.7347512h18.9390048v4.7347512h9.4695024v4.7347512h4.7347512v9.4695024h4.7347512v18.9390048h-42.6127608v14.2042536h4.7347512v4.7347512h18.9390048v-4.7347512h4.7347512v-4.7347512h14.2042536v9.4695024h-4.7347512v4.7347512h-4.7347512v4.7347512h-9.4695024v4.7347512h-18.9390048ZM107.8940108,197.7042937v-9.4695024h-4.7347512v-4.7347512h-18.9390048v4.7347512h-4.7347512v9.4695024h28.4085072ZM88.955006,159.8262841v-4.7347512h4.7347512v-4.7347512h4.7347512v-4.7347512h14.2042536v4.7347512h-4.7347512v4.7347512h-4.7347512v4.7347512h-14.2042536Z"/>
  <path class="cls-1" d="M153.9098741,240.3170546v-4.7347512h-9.4695024v-4.7347512h-4.7347512v-9.4695024h-4.7347512v-33.1432584h4.7347512v-9.4695024h4.7347512v-4.7347512h9.4695024v-4.7347512h18.9390048v4.7347512h9.4695024v4.7347512h4.7347512v14.2042536h-9.4695024v-4.7347512h-4.7347512v-4.7347512h-18.9390048v4.7347512h-4.7347512v33.1432584h4.7347512v4.7347512h18.9390048v-4.7347512h4.7347512v-4.7347512h9.4695024v14.2042536h-4.7347512v4.7347512h-9.4695024v4.7347512h-18.9390048Z"/>
  <path class="cls-1" d="M211.1707715,240.3170546v-4.7347512h-4.7347512v-4.7347512h-4.7347512v-61.5517657h14.2042536v52.0822632h4.7347512v4.7347512h14.2042536v-4.7347512h4.7347512v-4.7347512h4.7347512v-47.347512h14.2042536v71.0212681h-14.2042536v-9.4695024h-4.7347512v4.7347512h-4.7347512v4.7347512h-23.673756Z"/>
  <path class="cls-1" d="M273.9062249,240.3170546v-71.0212681h14.2042536v9.4695024h4.7347512v-4.7347512h4.7347512v-4.7347512h14.2042536v4.7347512h4.7347512v4.7347512h9.4695024v-4.7347512h4.7347512v-4.7347512h18.9390048v4.7347512h4.7347512v4.7347512h4.7347512v9.4695024h4.7347512v52.0822632h-14.2042536v-52.0822632h-4.7347512v-4.7347512h-14.2042536v4.7347512h-4.7347512v52.0822632h-14.2042536v-52.0822632h-4.7347512v-4.7347512h-9.4695024v4.7347512h-4.7347512v4.7347512h-4.7347512v47.347512h-14.2042536Z"/>
  <path class="cls-1" d="M396.1219904,240.3170546v-4.7347512h-9.4695024v-4.7347512h-4.7347512v-9.4695024h-4.7347512v-33.1432584h4.7347512v-9.4695024h4.7347512v-4.7347512h9.4695024v-4.7347512h18.9390048v4.7347512h9.4695024v4.7347512h4.7347512v9.4695024h4.7347512v18.9390048h-42.6127608v14.2042536h4.7347512v4.7347512h18.9390048v-4.7347512h4.7347512v-4.7347512h14.2042536v9.4695024h-4.7347512v4.7347512h-4.7347512v4.7347512h-9.4695024v4.7347512h-18.9390048ZM419.7957464,197.7042937v-9.4695024h-4.7347512v-4.7347512h-18.9390048v4.7347512h-4.7347512v9.4695024h28.4085072Z"/>
  <path class="cls-1" d="M88.0672402,353.9517v-4.7347512h-4.7347512v-4.7347512h-4.7347512v-9.4695024h4.7347512v-4.7347512h4.7347512v4.7347512h4.7347512v4.7347512h4.7347512v4.7347512h9.4695024v-4.7347512h4.7347512v-9.4695024h-4.7347512v-4.7347512h-4.7347512v-4.7347512h-9.4695024v-4.7347512h-4.7347512v-4.7347512h-4.7347512v-4.7347512h-4.7347512v-14.2042536h4.7347512v-4.7347512h4.7347512v-4.7347512h28.4085072v4.7347512h4.7347512v14.2042536h-9.4695024v-4.7347512h-4.7347512v-4.7347512h-9.4695024v4.7347512h-4.7347512v4.7347512h4.7347512v4.7347512h4.7347512v4.7347512h9.4695024v4.7347512h4.7347512v4.7347512h4.7347512v4.7347512h4.7347512v18.9390048h-4.7347512v4.7347512h-4.7347512v4.7347512h-28.4085072Z"/>
  <path class="cls-1" d="M147.6955131,353.9517v-56.8170144h-9.4695024v-14.2042536h9.4695024v-18.9390048h14.2042536v18.9390048h18.9390048v14.2042536h-18.9390048v56.8170144h-14.2042536Z"/>
  <path class="cls-1" d="M198.8900105,353.9517v-4.7347512h-4.7347512v-4.7347512h-4.7347512v-61.5517657h14.2042536v52.0822632h4.7347512v4.7347512h14.2042536v-4.7347512h4.7347512v-4.7347512h4.7347512v-47.347512h14.2042536v71.0212681h-14.2042536v-9.4695024h-4.7347512v4.7347512h-4.7347512v4.7347512h-23.673756Z"/>
  <path class="cls-1" d="M278.3450542,353.9517v-4.7347512h-9.4695024v-4.7347512h-4.7347512v-9.4695024h-4.7347512v-33.1432584h4.7347512v-9.4695024h4.7347512v-4.7347512h9.4695024v-4.7347512h18.9390048v4.7347512h4.7347512v4.7347512h4.7347512v-33.1432584h14.2042536v94.6950241h-14.2042536v-9.4695024h-4.7347512v4.7347512h-4.7347512v4.7347512h-18.9390048ZM297.284059,339.7474464v-4.7347512h4.7347512v-4.7347512h4.7347512v-23.673756h-4.7347512v-4.7347512h-4.7347512v-4.7347512h-18.9390048v4.7347512h-4.7347512v33.1432584h4.7347512v4.7347512h18.9390048Z"/>
  <path class="cls-1" d="M336.0498345,273.4609295v-14.2042536h14.2042536v14.2042536h-14.2042536ZM336.0498345,353.9517v-71.0212681h14.2042536v71.0212681h-14.2042536Z"/>
  <path class="cls-1" d="M384.1371514,353.9517v-4.7347512h-9.4695024v-4.7347512h-4.7347512v-9.4695024h-4.7347512v-33.1432584h4.7347512v-9.4695024h4.7347512v-4.7347512h9.4695024v-4.7347512h18.9390048v4.7347512h9.4695024v4.7347512h4.7347512v9.4695024h4.7347512v33.1432584h-4.7347512v9.4695024h-4.7347512v4.7347512h-9.4695024v4.7347512h-18.9390048ZM403.0761562,339.7474464v-4.7347512h4.7347512v-33.1432584h-4.7347512v-4.7347512h-18.9390048v4.7347512h-4.7347512v33.1432584h4.7347512v4.7347512h18.9390048Z"/>
</svg>