<?xml version="1.0" encoding="UTF-8"?>
<svg id="Calque_1" data-name="Calque 1" xmlns="http://www.w3.org/2000/svg" version="1.1" viewBox="0 0 500 500">
  <defs>
    <style>
      .cls-1 {
        fill: #000;
        stroke-width: 0px;
      }
    </style>
  </defs>
  <path class="cls-1" d="M387.7,249.9c0-9.2-7.4-16.6-16.6-16.6s-8.8,1.9-11.7,4.9c-4.3,4.3-11.2,4.3-15.4,0-3-3-7.2-4.9-11.7-4.9s-4.3.4-6.3,1.3h0c-5,2-10.8-.3-13-5.3h0c-2.5-6.1-8.4-10.2-15.3-10.2s-14.4,5.5-16.1,12.7h0c-4.2,17.3-8.5,34.4-13,51.6h0c-.3,1.3-.6,2.7-.6,4.2,0,9.2,7.4,16.6,16.6,16.6s14.4-5.5,16.1-12.7h0c2.2-9.1,4.5-18.2,6.6-27.1-1.6-1-2.6-2.7-2.6-4.9,0-3.2,2.6-5.8,5.8-5.8s5.8,2.6,5.8,5.8-2,5-4.6,5.6c-1.4,6.2-2.9,12.4-4.3,18.6h0c-.3,1.3-.4,2.6-.4,3.9,0,9.2,7.4,16.6,16.6,16.6s14.6-5.6,16.1-13h0v-.3h0c2-8.9,4-17.7,6.1-26.7-1.6-1-2.6-2.7-2.6-4.8,0-3.2,2.6-5.8,5.8-5.8s5.8,2.6,5.8,5.8-1.7,4.8-4.2,5.5c-1.4,6.2-2.9,12.5-4.3,18.7h0c-.3,1.3-.4,2.6-.4,3.9,0,9.2,7.4,16.6,16.6,16.6s14.6-5.6,16.1-13h0v-.3h0c2.7-12.4,5.6-24.6,8.5-36.9h0c.6-1.4.7-2.7.7-4h0Z"/>
  <path class="cls-1" d="M386.7,283.5h0c-.3,1.3-.4,2.6-.4,3.9,0,9.2,7.4,16.6,16.6,16.6s14.6-5.6,16.1-13h0v-.3h0c2-8.8,4-17.7,6.1-26.5-1.6-1-2.7-2.9-2.7-4.9,0-3.2,2.6-5.8,5.8-5.8s5.8,2.6,5.8,5.8-2.3,5.5-5.3,5.8c-1.4,6.2-2.9,12.4-4.3,18.4h0c-.3,1.3-.4,2.6-.4,3.9,0,9.2,7.4,16.6,16.6,16.6s14.6-5.6,16.1-13h0v-.3h0c2.7-12.4,5.6-24.6,8.5-36.9h0c.3-1.3.4-2.6.4-3.9,0-9.2-7.4-16.6-16.6-16.6s-8.8,1.9-11.7,4.9c-1.9,1.9-4.3,2.9-6.8,2.9,1.9-8.2,3.9-16.6,5.8-24.8h0c.3-1.3.4-2.6.4-3.9.1-9.2-7.2-16.6-16.4-16.6s-14.6,5.6-16.1,13h0v.3h0l-17.3,74.4h0Z"/>
  <path class="cls-1" d="M271,249.9c0-9.2-7.4-16.6-16.6-16.6s-8.8,1.9-11.7,4.9c-4.3,4.3-11.2,4.3-15.4,0-3-3-7.2-4.9-11.7-4.9s-4.3.4-6.3,1.3h0c-5,2-10.8-.3-13-5.3h0c-2.5-6.1-8.4-10.2-15.3-10.2s-14.4,5.5-16.1,12.7h0c-4.2,17.3-8.5,34.4-13,51.6h0c-.3,1.3-.6,2.7-.6,4.2,0,9.1,7.4,16.4,16.6,16.4s14.4-5.5,16.1-12.7h0c2.2-9.1,4.5-18.2,6.6-27.1-1.6-1-2.6-2.7-2.6-4.9,0-3.2,2.6-5.8,5.8-5.8s5.8,2.6,5.8,5.8-2,5-4.6,5.6c-1.4,6.2-2.9,12.4-4.3,18.6h0c-.3,1.3-.4,2.6-.4,3.9,0,9.2,7.4,16.6,16.6,16.6s14.6-5.6,16.1-13h0v-.3h0c2-8.9,4-17.7,6.1-26.7-1.6-1-2.6-2.7-2.6-4.8,0-3.2,2.6-5.8,5.8-5.8s5.8,2.6,5.8,5.8-1.7,4.8-4.2,5.5c-1.4,6.2-2.9,12.5-4.3,18.7h0c-.3,1.3-.4,2.6-.4,3.9,0,9.2,7.4,16.6,16.6,16.6s14.6-5.6,16.1-13h0v-.3h0c2.7-12.4,5.6-24.6,8.5-36.9h0c.6-1.3.7-2.6.7-3.9h0Z"/>
  <path class="cls-1" d="M154.2,249.9c0-9.2-7.4-16.6-16.6-16.6s-8.8,1.9-11.7,4.9c-4.3,4.3-11.2,4.3-15.4,0-3-3-7.2-4.9-11.7-4.9s-4.3.4-6.3,1.3h0c-5,2-10.8-.3-13-5.3h0c-2.5-6.1-8.4-10.2-15.3-10.2s-14.4,5.5-16.1,12.7h0c-4.2,17.3-8.5,34.4-13,51.6h0c-.4,1.2-.6,2.6-.6,4,0,9.2,7.4,16.6,16.6,16.6s14.4-5.5,16.1-12.7h0c2.2-9.1,4.5-18.2,6.6-27.1-1.6-1-2.6-2.7-2.6-4.9,0-3.2,2.6-5.8,5.8-5.8s5.8,2.6,5.8,5.8-2,5-4.6,5.6c-1.4,6.2-2.9,12.4-4.3,18.6h0c-.3,1.3-.4,2.6-.4,3.9,0,9.2,7.4,16.6,16.6,16.6s14.6-5.6,16.1-13h0v-.3h0c2-8.9,4-17.7,6.1-26.7-1.6-1-2.6-2.7-2.6-4.8,0-3.2,2.6-5.8,5.8-5.8s5.8,2.6,5.8,5.8-1.7,4.8-4.2,5.5c-1.4,6.2-2.9,12.5-4.3,18.7h0c-.3,1.3-.4,2.6-.4,3.9,0,9.2,7.5,16.6,16.7,16.6s14.6-5.6,16.1-13h0v-.3h0c2.7-12.4,5.6-24.6,8.5-36.9h0c.4-1.3.6-2.6.6-3.9Z"/>
</svg>