<?xml version="1.0" encoding="UTF-8"?>
<svg id="Calque_1" data-name="Calque 1" xmlns="http://www.w3.org/2000/svg" version="1.1" viewBox="0 0 500 500">
  <defs>
    <style>
      .cls-1 {
        fill: #000;
        stroke-width: 0px;
      }
    </style>
  </defs>
  <path class="cls-1" d="M381,376.1510152l-118.9617862,70.6526808-67.0282693,16.9081869-38.6472843-11.4727982-20.5325984-12.6817545-10.263842-17.512665-6.6443449-55.5554711,33.2118956-152.1736818,39.8562405-64.0107932,60.9908598-68.8392465,25.9655298-20.5301411,32.6074175-16.9106441,27.7789642-7.8483867,18.1171431,4.8309105,21.1346193,47.7046272-10.2662992,75.4835914-14.4927316,35.0228727-15.0972097,6.6443449-24.1545527,5.4329314-9.6618211-10.263842,3.6244115-22.9480536,4.8309105-52.5355377-1.2089562-24.1545527-15.0972097,11.4727982-82.1254791,118.357308-27.1720288,131.6410834-.6044781,12.6817545,2.4154553,13.2862326,28.9854632,15.0972097,42.2716958-15.7016878,120.1682852-68.2372256v56.1599492Z"/>
</svg>