<?xml version="1.0" encoding="UTF-8"?>
<svg xmlns="http://www.w3.org/2000/svg" version="1.1" viewBox="0 0 500 500">
  <defs>
    <style>
      .cls-1 {
        fill: #000;
      }

      .cls-1, .cls-2, .cls-3 {
        stroke-width: 0px;
      }

      .cls-2 {
        fill: #e4e4e4;
      }

      .cls-4 {
        display: none;
      }

      .cls-3 {
        fill: #e6e6e6;
      }
    </style>
  </defs>
  <g id="Calque_2" data-name="Calque 2" class="cls-4">
    <circle class="cls-2" cx="250" cy="250" r="250"/>
  </g>
  <g id="Calque_1" data-name="Calque 1">
    <g id="Fond" class="cls-4">
      <circle class="cls-3" cx="250" cy="250" r="250"/>
    </g>
    <g id="Calque_1-2" data-name="Calque 1">
      <path class="cls-1" d="M215.4,317.9h0c0,2.8-.7,5.6-.7,8.4,0,18.9,16,35.7,34.9,35.7s34.9-16.8,34.9-35.7-14.7-35.7-34.9-35.7-23.7,13.3-69.8,13.3-76.1-15.4-104.1-39.2c-.7-4.9-.7-9.8-.7-14.7,0-96.6,78.9-175,174.7-175s153,58.1,170.5,135.8c-27.9-20.3-62.8-32.2-99.9-32.2s-25.1,1.4-36.3,3.5h0c.7-2.8,1.4-5.6,1.4-8.4,0-18.9-16-35.7-34.9-35.7s-34.9,16.8-34.9,35.7,14.7,35.7,34.9,35.7,23.7-13.3,69.8-13.3,76.1,15.4,104.1,39.9c.7,4.9.7,9.1.7,14,0,95.9-78.9,175-175.3,175s-151.6-58.1-169.8-135.1c27.9,20.3,63.5,31.5,99.9,31.5s25.1-1.4,35.6-3.5h0Z"/>
    </g>
  </g>
</svg>