<?xml version="1.0" encoding="UTF-8"?>
<svg id="Calque_1" data-name="Calque 1" xmlns="http://www.w3.org/2000/svg" version="1.1" viewBox="0 0 500 500">
  <defs>
    <style>
      .cls-1 {
        fill: #000;
        stroke-width: 0px;
      }
    </style>
  </defs>
  <path class="cls-1" d="M371.9263328,315.1743896c-32.6569815,46.6490963-69.9271361,67.813148-111.8123281,63.4921265-7.2221622,28.7546688-20.3322202,33.6246474-39.3301736,14.6099472-22.0777497,16.0577234-31.0677692,11.373835-26.9700583-14.047951-24.9454012-.5731611-25.6934819-4.693202-2.2479734-12.3619738-24.1861498-5.88231-24.0000595-9.8162606.5619962-11.799989-13.8209264-53.9345341-5.3947602-94.7627326,25.2822184-122.4845964,10.4861866-57.9838611,35.9582196-94.6920252,76.4142394-110.1263509-9.1686673-23.7283693-4.486636-27.286414,14.047951-10.6741339,24.8579385,7.7674051,25.2338388,15.2594003,1.1239867,22.4741229,22.5392499,21.7911635,21.0412257,38.0852252-4.4940784,48.882185,8.8920072,6.9246684,8.4759476,16.7020677-3.3738171,21.3519932,10.705601-4.4418957,13.546325-.3853151,8.9900194,9.5501501,7.4364003-14.6161351,12.5331298-17.3331737,22.4759799-5.0560717-2.8698378-16.8724931,1.2907576-18.0892841,14.046094-6.1819183-17.1891553-22.379215-12.6932199-33.2413019,13.4859548-32.5862606-20.3973494-31.3878389-17.2133423-54.7998526,9.5520156-70.2341782-30.2117529-7.8548735-36.7658517-22.6509109-19.666016-44.3862609-11.5385102,14.7068544-16.8560578,12.5750231-16.8560578-4.495924-3.6938869,26.4396943-12.3098688,28.8737579-25.8479343,7.3021795-.8839287,27.9898292-10.9960721,33.2357137-30.3382929,15.7357909,5.4933849,26.8118748-2.5587409,33.1780262-24.1600955,19.1021571-4.4066171,41.8275087-23.3226915,63.1776392-56.7482223,64.0504029,5.9120908,36.741659-6.4498887,56.595628-37.0859271,59.5600472,11.5171282,61.8470951,1.2170318,109.0433-30.9021461,141.5904832,26.7411709,17.7734814,28.8011913,35.0035825,6.1837867,51.6902918,24.9044497-5.8395129,28.0884568-.4075381,9.5501415,16.2959244,20.4829606-16.0744765,26.8528262-12.140526,19.1040312,11.7981149,21.3389656-19.1579819,33.3250391-15.5999373,35.9600777,10.6759966,18.9681776-29.9902994,39.7563205-35.2343212,62.3662856-15.7320655,31.7953799-47.3097201,67.7288887-61.799132,109.7257402-58.3173794-9.8802565-4.5665051-8.7178733-7.3894355.9626026-7.4227148-10.7703744-12.413512-10.6192683-31.3017733,0-52.254145Z"/>
</svg>