<?xml version="1.0" encoding="UTF-8"?>
<svg id="Calque_1" data-name="Calque 1" xmlns="http://www.w3.org/2000/svg" version="1.1" viewBox="0 0 500 500">
  <defs>
    <style>
      .cls-1 {
        fill: #000;
      }

      .cls-1, .cls-2, .cls-3 {
        stroke-width: 0px;
      }

      .cls-2 {
        fill: #e4e4e4;
      }

      .cls-4 {
        display: none;
      }

      .cls-3 {
        fill: #e6e6e6;
      }
    </style>
  </defs>
  <g id="Calque_2" data-name="Calque 2" class="cls-4">
    <circle class="cls-2" cx="250" cy="250" r="250"/>
  </g>
  <g id="Calque_1-2" data-name="Calque 1-2">
    <g id="Fond" class="cls-4">
      <circle class="cls-3" cx="250" cy="250" r="250"/>
    </g>
    <g id="Calque_1-2-2" data-name="Calque 1-2-2">
      <path class="cls-1" d="M216,317.8999939s-2.1999969,3.2000122-2.1999969,9.2999878c0,22.3999939,16.8000031,34.7999878,35.6999969,34.7999878s34.8999939-16.7999878,34.8999939-35.7000122-14.7000122-35.7000122-34.8999939-35.7000122-23.6999969,13.2999878-69.8000031,13.2999878-76.0999985-15.3999939-104.0999985-39.8999939c-.6999969-4.8999939-.6999969-9.1000061-.6999969-14,0-95.8999939,78.9000015-175,175.3000107-175s151.6000061,58.1000061,169.7999878,135.1000061c-27.8999939-20.3000031-63.5-31.5-99.8999939-31.5-23.4798328,0-25.1000061,1.3999939-35.6000061,3.5,0,0,.7999878-4.6000061.7999878-8.3999939,0-18.8999939-16-35.6999969-34.8999939-35.6999969s-34.8999939,16.8000031-34.8999939,35.6999969,14.6999969,35.6999969,34.8999939,35.6999969c20.1999817,0,23.7000122-13.3000031,69.8000183-13.3000031s76.1000061,15.3999939,104.1000061,39.1999969c.7000122,4.8999939.7000122,9.8000031.7000122,14.6999969,0,96.6000061-78.8999939,175-174.6999969,175s-153-58.1000061-170.5-135.7999878c27.9000015,20.2999878,62.8000031,32.2000122,99.9000092,32.2000122,22.667971,0,25.6000061-.3999939,36.3000031-3.5h0l-.0000458.0000305Z"/>
    </g>
  </g>
</svg>