<?xml version="1.0" encoding="UTF-8"?>
<svg id="evening" xmlns="http://www.w3.org/2000/svg" viewBox="0 0 20 20">
  <path class="cls-1" d="M1,17.049947177478316s2.5,1.450052822521684,5.5,1.450052822521684,4-3,8-3c3,0,4.5,1.549947177478316,4.5,1.549947177478316"/>
  <path class="cls-3" d="M4.663251994531493,16.000418077450377c-.460436860105801-.532854145461897-.836101377160048-1.13402963374574-1.112118966038906-1.784680849908909-.493637027992008-1.163611090971244-.650880361341478-2.44378412322294-.45389744473141-3.704657457283247.197019728789201-1.261046031653677.741203127528934-2.456519378099983,1.576803051767456-3.45793463616792.834078639984-.999596694891807,1.926654675622558-1.767570295940459,3.161897023348502-2.221143304812358l.024302483681822-.008006729885892.039136988117207-.010651326763764.019163152789588-.005212079002376.018669636689083-.006830437099779.193189026884284-.070679763008229c.27190093072295-.09947714761438.453922301434432.147036504284188.384586887738806.336475745754797l-.024144459865056.052174452750478c-.589451289979479,1.114609224101514-.766996672207824,2.389629273919127-.497264236505544,3.604726336649037.270711857518108,1.219538367326095.974000366993096,2.297134213622485,1.98492437846744,3.045721231585048,1.010451203633238.748382776107974,2.262973057969248,1.119890391442823,3.538564788904296,1.054615017950709,1.27538491033738-.065299224988848,2.496720285404081-.563018889601153,3.452621416186958-1.40757353380468l.000373803854018-.000335796108629c.107442749345864-.095062837901423.237874235115669-.10392265286464.344646266739801-.056025868701909.104769540525012.047039959432368.165292530342413.136405219325752.158640579598796.254322025100919l.000032111451219.000087770244136c-.045776568498695.820420499929241-.238631723957951,1.627319160037587-.567030019645244,2.384956212838006"/>
  <path class="cls-2" d="M17.999999990192009,4.499999960768037c-1.380711858248105,0-2.499999970576027-1.119288112327922-2.499999970576027-2.499999970576027,0,1.380711858248105-1.119288112327922,2.499999970576027-2.499999970576027,2.499999970576027,1.380711858248105,0,2.499999970576027,1.119288112327922,2.499999970576027,2.499999970576027,0-1.380711858248105,1.119288112327922-2.499999970576027,2.499999970576027-2.499999970576027Z"/>
</svg>