<?xml version="1.0" encoding="UTF-8"?>
<svg id="Calque_1" data-name="Calque 1" xmlns="http://www.w3.org/2000/svg" viewBox="0 0 20 20">
  <defs>
    <style>
      .cls-1 {
        stroke-linecap: round;
        stroke-linejoin: round;
      }

      .cls-1, .cls-2 {
        fill: none;
        stroke: #000;
      }

      .cls-2 {
        stroke-miterlimit: 10;
      }
    </style>
  </defs>
  <path class="cls-2" d="M14.38470458984375,14.2796630859375c.06756591796875-.2501220703125.11529541015625-.5081787109375.11529541015625-.7796630859375,0-1.6568603515625-1.3431396484375-3-3-3-1.29205322265625,0-2.3836669921875.82122802734375-2.80596923828125,1.9666748046875h-2.66070556640625c-1.67523193359375,0-3.0333251953125,1.3580322265625-3.0333251953125,3.0333251953125,0,1.67523193359375,1.35809326171875,3.0333251953125,3.0333251953125,3.0333251953125h7.79998779296875c1.1966552734375,0,2.16668701171875-.97003173828125,2.16668701171875-2.16668701171875,0-1.00482177734375-.68743896484375-1.8419189453125-1.61529541015625-2.08697509765625Z"/>
  <path class="cls-1" d="M6.260794057365274,10.999972911800796C7.410974167120003,5.572509165704105,12.229894343103297,1.5,18,1.5"/>
  <path class="cls-1" d="M8.629631693352167,9.999935762041787c1.418753405717325-3.796634123769763,5.078865892191061-6.499935762041787,9.370368306647833-6.499935762041787"/>
  <path class="cls-1" d="M11.354031442919222,9.045299335557502c1.436053973189701-2.138219054977526,3.876690660945314-3.545299335557502,6.645968557080778-3.545299335557502"/>
</svg>