<?xml version="1.0" encoding="UTF-8"?>
<svg id="Calque_1" data-name="Calque 1" xmlns="http://www.w3.org/2000/svg" viewBox="0 0 20 20">
  <defs>
    <style>
      .cls-1 {
        stroke-linecap: round;
        stroke-linejoin: round;
      }

      .cls-1, .cls-2 {
        fill: none;
        stroke: #000;
      }
    </style>
  </defs>
  <path class="cls-2" d="M17.474316081155848,10.008368447293833l.000033426762457.000087277789135c-.051777633958409,1.271132573338036-.45655857192105,2.515154072541918-1.17353011178966,3.598797592610936-.717144437532625,1.08370973862111-1.719402088921925,1.965790179676333-2.900457779742283,2.550650947361646-1.181175442601671.584809411177048-2.495173763445564.849592553728144-3.80126690734869.766743092146498-1.306006916152-.082884392470078-2.553744835621728-.510004615249272-3.610872975707025-1.233602779855573-1.056999439214451-.723548329251571-1.884386450591592-1.716634095993868-2.395461118848289-2.872742486082643-.511067049867961-1.15606174444838-.68752998263426-2.433727307789013-.509516643058305-3.697418363746692.178047552445605-1.263864287237084.704204945885976-2.467380174484788,1.524662100153364-3.481239045575421.818963369611083-1.012017652688883,1.899875582271306-1.796322844613314,3.128162543394865-2.268406812912872l.024179421246117-.008371022922802.038972509899395-.011238241539104.019082666299255-.005499458091435.018564886609965-.007110217311492.192105097612512-.073574863090471c.270375371104819-.103551811791476.456080587102406.140198742505163.389599734570766.330658507411499l-.023357700198176.052531383984388c-.572635330736375,1.123341143067591-.731000745857273,2.400885226641549-.443039318802221,3.611791777642793.28900747843727,1.215332636189487,1.008409773065068,2.282238383666481,2.030468767746243,3.015549567153357,1.021583171053862.733114069649673,2.279546299416324,1.085757900618773,3.554013095221308,1.001321387147982,1.274259640140372-.084457254350127,2.487977800401495-.600473911426889,3.431079745763782-1.459297664901896l.000368715587683-.00034137539842c.106002093863935-.096666662471762.236285714307087-.107485490763793.34376544211591-.061198594339658.105464587180904.045460260180334.167323648423917.13390594133125.162444402511028.251909392520247Z"/>
  <path class="cls-1" d="M17.999999990192009,4.499999960768037c-1.380711858248105,0-2.499999970576027-1.119288112327922-2.499999970576027-2.499999970576027,0,1.380711858248105-1.119288112327922,2.499999970576027-2.499999970576027,2.499999970576027,1.380711858248105,0,2.499999970576027,1.119288112327922,2.499999970576027,2.499999970576027,0-1.380711858248105,1.119288112327922-2.499999970576027,2.499999970576027-2.499999970576027Z"/>
</svg>