<?xml version="1.0" encoding="UTF-8"?>
<svg id="morning" data-name="Calque 1" xmlns="http://www.w3.org/2000/svg" viewBox="0 0 20 20">
  <path class="cls-1" d="M1,17.049947177478316s2.5,1.450052822521684,5.5,1.450052822521684,4-3,8-3c3,0,4.5,1.549947177478316,4.5,1.549947177478316"/>
  <path class="cls-2" d="M17.451882724593816,2.275800087561947h-1.050000000001091c0-.773229980468386-.626812744139897-1.399999999999636-1.399999999999636-1.399999999999636s-1.399999999999636.62677001953125-1.399999999999636,1.399999999999636c0,.0213623046875.005340576171875.041229248046875.006280517578489.062335205078853-.410113525391353.142871093748909-.706280517579216.528845214843386-.706280517579216.987664794922239,0,.579901123046511.470098876952761,1.049999999999272,1.050000000001091,1.049999999999272h3.5c.579901123046511,0,1.049999999999272-.470098876952761,1.049999999999272-1.049999999999272,0-.57990112304833-.470098876952761-1.050000000001091-1.049999999999272-1.050000000001091Z"/>
  <path class="cls-3" d="M7.140690175994678,16.019489749287459c-.403750608033079-.570581207459327-.641002570151613-1.26732889595587-.641002570152523-2.019489749287459,0-1.933082889565412,1.567073307513056-3.500156197078468,3.500156197078468-3.500156197078468,1.933082889566322,0,3.500156197079377,1.567073307513056,3.500156197079377,3.500156197078468"/>
  <line class="cls-3" x1="4.768677538553675" y1="12.301981948163302" x2="1.915228923217001" y2="11.375790283527749"/>
  <line class="cls-3" x1="6.765394620556435" y1="9.55170504133639" x2="5.001064413584572" y2="7.125362336610124"/>
  <line class="cls-3" x1="9.997239315644947" y1="8.500000692853064" x2="9.995733487813595" y2="5.50000107076994"/>
  <line class="cls-3" x1="13.230138172548322" y1="9.548460110676388" x2="14.992031721212697" y2="7.120347443771607"/>
  <line class="cls-3" x1="15.229615210409975" y1="12.296731157144677" x2="18.08213259790864" y2="11.367675424677145"/>
</svg>