<?xml version="1.0" encoding="UTF-8"?>
<svg xmlns="http://www.w3.org/2000/svg" version="1.1" viewBox="0 0 500 500">
  <defs>
    <style>
      .cls-1 {
        fill: #000;
      }

      .cls-1, .cls-2 {
        stroke-width: 0px;
      }

      .cls-2 {
        fill: #e4e4e4;
      }

      .cls-3 {
        display: none;
      }
    </style>
  </defs>
  <g id="Calque_2" data-name="Calque 2" class="cls-3">
    <circle class="cls-2" cx="250" cy="250" r="250"/>
  </g>
  <g id="Calque_1" data-name="Calque 1">
    <g>
      <path class="cls-1" d="M30.3,242.7v-58.6h105.3v22h-55.1v6h55.1v12h-55.1v18.6H30.3Z"/>
      <path class="cls-1" d="M141.6,242.7v-58.6h90.6c12.6,0,14.7,3.5,14.7,16.6v2.2c0,12.2-1.8,16-12.4,16.5l12.4,20.9v2.5h-46.3l-11.1-20.1h-.6v20.1h-47.2ZM188.9,212.1h8.9c3.4,0,4.2-1.5,4.2-5v-.7c0-3.4-.8-5-4.2-5h-8.9v10.7Z"/>
      <path class="cls-1" d="M253,209.4c0-21.4,4.1-25.3,18.1-25.3h69.2c14,0,18.1,4,18.1,25.3v33.3h-47.2v-16h-10.8v16h-47.2v-33.3ZM300.3,212.5h10.8v-5.4c0-8.6-1.7-12-5.4-12s-5.4,3.4-5.4,12v5.4Z"/>
      <path class="cls-1" d="M382.5,242.7c-14,0-18.1-4-18.1-25.3v-7.9c0-21.4,4.1-25.3,18.1-25.3h69.2c14,0,18.1,4,18.1,25.3v.7h-47.2v-3.1c0-8.6-1.7-12-5.4-12s-5.4,3.4-5.4,12v12.6c0,8.6,1.7,12,5.4,12s5.4-3.4,5.4-12v-3.5h47.2v1.2c0,21.4-4.1,25.3-18.1,25.3h-69.2Z"/>
      <path class="cls-1" d="M30.3,282.7c0-21.4,4.1-25.3,18.1-25.3h69.2c14,0,18.1,4,18.1,25.3v33.3h-47.2v-16h-10.8v16H30.3v-33.3ZM77.5,285.7h10.8v-5.4c0-8.6-1.7-12-5.4-12s-5.4,3.4-5.4,12v5.4Z"/>
      <path class="cls-1" d="M141.6,315.9v-58.6h90.6c12.6,0,14.7,3.5,14.7,16.6v2.2c0,12.2-1.8,16-12.4,16.5l12.4,20.9v2.5h-46.3l-11.1-20.1h-.6v20.1h-47.2ZM188.9,285.3h8.9c3.4,0,4.2-1.5,4.2-5v-.7c0-3.4-.8-5-4.2-5h-8.9v10.7Z"/>
      <path class="cls-1" d="M279.8,315.9v-36.6h-26.8v-22h105.3v22h-26.8v36.6h-51.8Z"/>
      <path class="cls-1" d="M382.5,315.9c-14,0-18.1-4-18.1-25.3v-7.9c0-21.4,4.1-25.3,18.1-25.3h69.2c14,0,18.1,4,18.1,25.3v7.9c0,21.4-4.1,25.3-18.1,25.3h-69.2ZM411.7,292.9c0,8.6,1.7,12,5.4,12s5.4-3.4,5.4-12v-12.6c0-8.6-1.7-12-5.4-12s-5.4,3.4-5.4,12v12.6Z"/>
    </g>
  </g>
</svg>