<?xml version="1.0" encoding="UTF-8"?>
<svg id="Calque_1" data-name="Calque 1" xmlns="http://www.w3.org/2000/svg" version="1.1" viewBox="0 0 500 500">
  <defs>
    <style>
      .cls-1 {
        fill: #000;
        stroke-width: 0px;
      }
    </style>
  </defs>
  <g id="Calque_2" data-name="Calque 2">
    <path class="cls-1" d="M430.5,104.4c-3.8-5.5-9.3-11-15.9-12.6-3.3-1.1-6.6,0-8.2,2.7-1.6-3.3-6-5.5-9.3-6l-24.7-2.7c-7.1-.5-20.8-3.3-29.6-3.3s-13.2,6.6-14.3,7.1c-11,7.1-21.4,14.3-32.9,20.3-.5,0-1.1-.5-1.6-.5-8.8,0-9.3-3.8-8.2-3.8,7.7,0,13.2-4.9,13.7-5.5,1.6-2.7,2.2-4.4,1.1-6.6,0-.5-.5-1.1-1.1-1.1,2.2-1.6,4.4-5.5,3.3-8.2-3.3-8.8-14.8-5.5-11-8.8,2.2-2.2,3.3-3.3,1.6-7.7-.5-1.6-1.6-3.3-2.7-4.4,2.2-1.1,2.7-4.4.5-6.6-1.1-1.6-5.5-6.6-12.1-6.6s-15.9,4.4-17,8.8c-.5-2.7,0-6,.5-8.8,1.1-2.7-1.1-6-2.7-6.6-3.3-1.1-5.5,0-6.6,2.7-1.6,7.1-2.2,13.7.5,19.7,2.2,4.9,13.7,9.9,9.9,11.5-1.6,1.1-2.7,2.7-2.7,4.4,0,4.9,1.6,9.9,4.4,13.7,2.2,3.8,12.6,4.9,9.9,7.7s2.7,9.9,8.8,12.6c-3.8,2.2-8.2,3.8-12.1,6-5.5-10.4-12.1-18.1-26.3-18.1s-26.3,6.6-30.2,12.6c-8.8,12.6-18.1,34-18.1,34-4.9,1.6-7.7,2.7-7.7,1.6,0,.5,7.7-17.5,7.7-33.4s-2.7-19.7-7.1-26.3c-4.4-7.1-9.9-12.6-17-14.3-2.7-.5-4.9-.5-8.8-.5s-13.2,1.6-18.1-.5c-2.2-1.1-4.4-2.7-6.6-4.4-1.1-.5-2.7-.5-2.7-1.1v-1.1c0-1.6-1.6-4.4-4.4-3.3-1.6.5-2.7,2.7-2.7,4.4,0,4.4.5,8.2,0,12.1-1.1,11-3.8,18.6-5.5,26.9-1.6,7.7-1.1,15.9,2.7,23.6-10.4-3.3-35.1,2.2-41.7,3.8-2.2.5-6.6,2.7-6.6,5.5s4.4,1.6,4.4,4.9-1.1,3.3-15.9,8.2c-1.6.5-2.7,3.8-1.6,5.5,2.2,3.8,6.6,7.7,9.3,11.5,4.9,7.1,8.2,19.2,17,19.2h.5c-4.4,2.7-7.7,4.4-11,8.8-4.4,6.6-8.8,18.1-8.8,22.5s3.3,2.7,4.4,2.7c0,0,7.1-3.3,8.2-4.4,1.1-.5,3.3-1.1,2.7-.5-3.8,3.8-9.3,18.1-8.8,23.6,1.1,5.5,3.3,5.5,11.5.5,0,25.2-11.5,32.3-14.3,37.8-.5,2.2-.5,4.4,1.1,4.9,2.7,1.6,8.8,3.8,14.8,3.8s6.6,0,10.4-1.6c4.9-2.2,11-8.2,11-5.5,0,10.4-3.3,19.7,4.4,19.7,5.5-.5,20.3-27.4,20.3-27.4,1.1,6-1.6,18.1,4.9,18.1,9.3,0,13.7-15.4,18.6-20.8,0,1.1.5,29.6,11.5,29.6s9.3-2.2,13.7-3.3c-2.2,14.8,1.1,26.3,17,31.8-1.6,15.9,8.2,24.1,12.6,25.2-9.3,10.4-12.6,15.4-12.6,28s8.8,23.6,14.3,25.8c-13.2,26.9,9.3,45,30.2,45s29.6-16.4,31.3-29.1c12.6,1.1,29.1-8.8,32.3-21.4,3.3-13.2-1.1-29.6-12.6-35.1,4.9-.5,15.9-7.1,15.4-24.7,14.8,4.4,29.6-3.3,37.8-13.2,10.4-12.6,10.4-24.7,6.6-37.3,24.1-3.8,29.1-20.8,29.1-35.6s-11-36.7-36.2-36.7-9.9,1.1-14.8,3.8c.5-14.8-17.5-28-33.4-26.3,6.6-9.9-16.4-29.6-8.8-34,12.6-6.6,29.1-7.7,44.4-13.2,7.7-2.7,24.1-12.1,24.1-4.4s1.1,7.1,4.4,7.1c38.9.5,37.3,52.6,4.4,52.6s-19.7-10.4-19.7-20.8,3.8-11.5,12.1-11.5,12.6.5,12.6,4.9,0,6.6-5.5,6.6-7.7.5-7.7,4.4,3.3,8.2,7.7,8.2c7.7,0,12.6-3.8,13.7-15.4,1.6-13.7-6-18.1-18.1-18.1s-28,10.4-28,21.4,1.6,12.6,4.9,18.1c3.8,5.5,9.3,9.3,15.4,11.5,1.1.5,1.6.5,2.2.5,2.7,0,7.7-.5,9.9-1.6,1.6,2.7,3.3,3.3,6,3.3,13.7,0,25.2-8.8,31.3-22.5,5.5-13.7,4.4-39.5-31.8-52.6h8.2c4.4,0,3.8-4.4,7.1-4.4s3.8,4.9,12.6,4.9h1.1c5.5,0,12.6-1.1,17-5.5,4.4-3.8,7.7-9.3,9.9-15.4,1.6-7.1.5-15.4-3.3-21.4h0l.2.4ZM366.4,239.8c3.8,0,7.1,3.3,7.1,7.7.5,4.4-3.3,7.7-7.1,7.7s-7.1-3.3-7.1-7.7c-.5-4.9,2.7-7.7,7.1-7.7ZM338.4,286.4c3.3,0,6.6,2.7,6.6,7.1s-3.3,9.3-6.6,9.3-6.6-3.3-6.6-9.3,2.2-7.1,6.6-7.1ZM321.4,215.1c3.3,0,6.6,2.7,6.6,7.1.5,7.1-3.3,9.9-6.6,9.9-4.9,0-7.1-3.3-7.1-9.9s2.2-7.1,7.1-7.1ZM263.8,62.7c0-.5-.5-.5-.5-1.1,0,.5.5.5,1.1,1.1,1.1.5,2.2,1.1,3.3,1.1,3.8,0,4.9-3.8,10.4-3.8s6,3.3,8.2,4.4c-2.2,2.2-3.8,6-8.2,6.6-4.9.5-11.5-1.1-14.3-8.2h0ZM280.8,95.6c-7.7-2.7-11-9.3-9.9-15.4,2.7,1.6,7.1,1.6,11,.5-1.6,2.7-2.7,5.5-2.7,7.7s1.6,4.9,4.4,4.9,5.5-1.1,5.5-3.3,1.6-3.8,2.7-3.8c2.7,0,2.7,1.6,2.7,3.3s.5,2.2,1.1,2.7c-.5,0-1.1.5-1.1.5-5.5,2.7-7.7,4.4-13.7,2.7h0v.2ZM226.5,121.4c2.7-4.4,6.6-5.5,18.6-5.5s11,1.6,14.8,11c-9.9,6.6-28,11-28,11.5-6,1.6-10.4,1.6-14.8,3.3,3.3-6.6,6-14.3,9.3-20.3h.1ZM147.6,146.6c3.3,8.2,4.9,9.3-1.1,9.9-4.9-3.3-6-7.7-8.2-11l-6-8.8c5.5-1.1,14.3,7.1,15.4,9.9h0ZM193.1,220.6c-1.6-4.9-3.3-23.6-2.7-31.8-.5-1.6-1.6-3.3-4.4-3.3,1.6-3.3,1.1-4.4,2.7-4.4,12.6,0,34.5,7.7,23.6,11.5-12.6,4.4-17,15.9-19.2,28h0ZM218.9,250.8c-4.4,0-7.1-3.3-7.1-11s2.7-7.1,7.1-7.1,7.7,2.7,7.7,7.1c-.5,7.7-3.3,11-7.7,11ZM222.2,181.7c-8.8-5.5-17-3.3-27.4-5.5-8.2-1.6-17-3.3-24.7-4.4-7.1-.5-47.2,1.1-52.6,1.6-2.2.5-2.2,2.2-1.6,4.4.5,3.3.5,5.5,2.2,5.5,7.7-1.6,58.1-2.7,58.1-.5-4.4,3.3-3.3,9.3-9.9,11.5-4.4,1.1-4.9,2.2-9.3,2.2s-11.5,0-17-1.6c-1.6-.5-4.4,1.6-5.5,4.4-.5,1.6.5,3.3,2.7,4.4,5.5,1.6,11,2.7,17,2.7s9.3-3.3,8.8-1.6c-1.1,1.6-9.3,12.6-11,14.3l-6.6-1.1c-3.3-.5-6.6-.5-9.3-1.6-1.6-.5-4.9,1.6-5.5,3.8s0,3.8,2.2,4.9c1.6.5,9.9,2.2,13.2,2.2-1.6,1.6-5.5,9.3-7.1,8.8-5.5-1.6-13.2-1.1-20.8-.5-2.2.5-3.3,2.2-3.3,4.4.5,2.2,1.6,4.4,3.8,4.4,4.4-.5,6.6.5,10.4.5s-3.8,4.9-14.8,13.2c-1.6,1.1-1.6,3.3-.5,4.9,1.6,3.3,5.5,3.3,7.7,1.6,18.1-12.1,21.4-19.2,36.2-35.6,9.9-11.5,17-28,26.9-36.2-1.6,6,4.4,34,4.9,37.8-18.6,7.1-21.9,46.6,0,57.6-1.1,2.7-5.5,4.9-9.9,7.1-6.6-11-10.4-23-10.4-40s-1.6-4.4-5.5-4.4-5.5,4.9-5.5,7.1c0,7.1-3.3,13.7-9.3,23.6,0-7.1.5-14.3-4.4-14.3-10.4,0-14.3,13.2-20.8,24.1,2.2-17.5,1.6-20.3-2.7-20.3-7.7,0-6.6,2.2-6.6,3.8,0,4.4-14.3,9.9-21.9,8.8,5.5-5.5,9.9-15.9,8.2-22.5-1.6-7.1,3.8-13.2,4.4-17,0-4.4-1.1-11.5-6.6-8.8-.5.5-3.3,1.6-3.3.5,0-8.8,15.9-16.4,19.7-16.4s3.3-1.1,3.8-3.3,0-6-4.4-5.5c-6,.5-31.3,9.9-29.6,5.5,1.6-7.1,11-17,19.7-20.8,5.5-2.7,11-7.1,4.4-7.1s-15.9-9.3-21.4-18.1c-1.6-2.7-7.1-8.2-3.8-8.2,9.3,0,17-3.3,17-8.2s-2.7-4.4-8.8-6.6c5.5-2.2,19.2-4.4,23-4.4,26.9,0,15.4,23,35.6,23s15.9-35.6-8.8-35.6-6.6-7.1-4.4-15.9c2.7-8.8,1.1-13.2,1.1-25.2s-1.1-5.5,0-4.4c1.6,1.6,4.4,3.3,6.6,4.4,3.3,1.1,7.1,1.6,9.9,1.6,8.8,0,13.2-1.6,16.4-.5,1.6.5,4.9,1.6,6.6,3.8,2.2,2.2,3.3,3.8,4.9,6.6,3.3,6,5.5,9.9,5.5,19.2s-1.1,23.6-6.6,30.2c-2.2,2.7.5,11.5.5,11.5-2.7-1.1-4.4-2.7-6.6-4.9-1.6-1.6-.5-12.1-.5-15.4-4.9-15.4-11-26.9-21.9-40-1.1-1.6-3.3-3.3-5.5-1.6-1.6,1.1-2.7,3.3-1.6,5.5l9.3,16.4,6.6,12.1c12.6,20.3-4.9,14.3,7.7,28,3.3,3.3,6.6,6.6,11.5,6.6s13.7-1.1,19.2-4.9c2.2,3.8,11.5,7.1,19.2,7.1,13.7,0,35.1,12.6,40,25.8-4.9,1.1-6,1.6-9.9,4.9-1.6-4.9-9.9-9.9-18.1-9.9-3.8-4.4-2.2-4.4-9.3-9.3h0v-.2ZM269.9,194.8c-3.3-11-9.9-15.4-17-22.5l9.9-3.3c3.8,5.5,13.2,12.1,7.1,25.8h0ZM273.2,206.9c4.4.5,7.1,3.3,7.7,7.7.5,7.1-3.3,10.4-7.7,10.4s-7.1-3.3-7.1-11,2.2-7.1,7.1-7.1h0ZM236.4,298.5c0-4.4,2.7-7.1,7.1-7.1s7.1,3.3,7.7,7.1c.5,7.7-3.3,11-7.7,11-4.4.5-7.1-3.3-7.1-11ZM250.1,378c-4.9,0-7.7-3.3-7.7-11s2.7-7.1,7.7-7.1,6.6,3.3,7.1,7.7c.5,6.6-3.3,10.4-7.1,10.4ZM264.4,418.5c-5.5,0-7.7-3.3-7.7-11s2.7-7.1,7.7-7.1,6.6,3.3,7.1,7.1c.5,7.7-3.3,11-7.1,11ZM280.3,276.5c-4.4,0-7.1-3.8-7.1-11.5s2.7-7.7,7.1-7.7,7.1,3.3,7.7,8.2c1.1,7.1-3.3,11-7.7,11ZM292.3,394.4c-3.3,0-5.5-1.6-6-9.3-.5-4.4,2.7-7.1,7.1-7.1s6.6,3.3,6.6,7.1c-.5,7.1-3.8,9.3-7.7,9.3h0ZM300.6,325.3c3.3,0,6.6,2.7,7.1,7.1.5,7.1-3.3,10.4-7.1,10.4-5.5,0-7.7-3.3-7.7-10.4s2.2-7.1,7.7-7.1ZM364.2,134.5c-9.3,1.1-19.2,3.3-28.5,5.5-17.5,4.4-35.6,8.2-50.4,17-12.6,7.1,12.1,28,3.8,47.2l-2.7,2.7c-1.6-4.4-4.9-7.1-7.1-8.2,4.4-8.8,0-21.9-6-30.2-6.6-8.2-7.7-11-12.6-9.3-4.9,1.6-12.6,3.8-17,5.5-3.3-1.1-7.1-2.2-11-3.3-5.5-1.1-9.9-2.7-12.6-2.7-7.1,0-11.5-.5-11-1.1,1.1-1.6,1.6-3.3,3.3-5.5,7.1-1.1,15.9.5,24.1-1.6,11.5-3.3,64.1-28,98.1-48.8-1.6,4.4-1.6,13.2,1.6,13.2h1.6c7.1,0,9.3,8.2,20.8,15.9,1.6,1.6,7.7,3.3,5.5,3.8h.1ZM419.5,121.4c-1.6,5.5-7.1,9.9-12.6,9.9-21.9,0-36.2-7.7-40-9.9-10.4-5.5-13.7-11-18.1-15.4h-1.1c-1.6-1.6-5.5-5.5-8.2-6.6,3.3-1.1,3.8-3.3,9.3-3.3s14.8,2.2,21.9,3.3c8.8,1.1,15.9,3.8,25.2,3.8h.5c2.7,0,6.6-1.1,8.8-2.7,1.1,1.6,2.7,3.8,4.9,4.9,2.7,1.1,5.5,3.8,7.1,6,2.7,3.8,3.3,7.1,2.2,9.9h.1Z"/>
  </g>
</svg>