<?xml version="1.0" encoding="UTF-8"?>
<svg id="Calque_2" data-name="Calque 2" xmlns="http://www.w3.org/2000/svg" version="1.1" viewBox="0 0 500 500">
  <defs>
    <style>
      .cls-1 {
        fill: #000;
        stroke-width: 0px;
      }
    </style>
  </defs>
  <path class="cls-1" d="M144.3,172.6c2.4-.8,1.2-5.7,3.2-5.7,2,.8,4,1.6,6.5,2,3.6.4,3.2-3.2,3.2-4.8s-.8-2-2.8-2c-14.1,0-21.8-10.9-25-15.8-1.6-3.2-6.9-2-6.9,1.6s6.1,9.7,8.5,11.3,9.7,4.8,8.9,6.1c-2.8,0-5.7,0-8.9-.8-4.4-.8-7.7-3.2-10.9-5.3-4-2-8.5,2.8-4.8,5.7,6.1,5.7,14.5,8.5,22.6,8.5s4.4-.4,6.5-.8Z"/>
  <path class="cls-1" d="M381.8,157.3c-15.3,0-24.6,11.7-24.6,22.2s10.5,26.3,21.8,26.3,5.3-.4,7.7-1.6c1.2,1.6,3.2,2.8,5.7,2.8,14.1,0,27.5-21,27.5-37.6s-1.6-11.7-6.1-15.3c.4-6.9-19-18.2-36.4-20.6,19.8-6.1,19.8-10.9,19.8-21.8s-7.7-29.1-37.6-29.1-28.7,15.3-50.1,24.2c0-1.6-1.2-5.7-6.9-5.7s-6.1-4.4-5.3-4.4c6.1,0,18.2-4.4,13.3-10.9,1.6-.8,2.8-3.2,2.8-6.5,0-5.3-5.7-6.1-9.7-6.5,3.2-1.6,1.6-8.9-1.2-9.7,5.3-2-2.8-10.5-8.5-10.5-10.5,0-13.3,6.5-13.3,8.1s0,2.8,4,2.8,3.6-3.2,8.5-3.2,2.8,4.8,5.7,4c-.4,1.6-2.8,5.7-9.7,5.7s-11.7-7.7-11.7-12.9,1.2-3.2,1.2-6.5.4-3.2-2.8-3.2-4.8.4-4.8,2.8c-.4,2.8-1.6,4-1.6,8.5,0,6.5,4.4,12.5,10.9,15.3-5.7,4.4,0,19.4,8.9,20.2-2,6.5,6.1,14.9,9.3,16.2-4.8,2-7.7,3.2-12.5,5.7-3.6-10.1-12.1-26.7-25.4-26.7-19.4,0-30.3,9.7-34.3,15.8-8.9,12.9-14.9,32.7-19.4,33.9.8-1.2,2-14.5,2-30.7s-2.4-19.8-6.9-27.1c-4-6.9-10.5-12.9-17-14.5-5.7-.8-13.3,0-19,0-8.9,0-10.9-2-17.4-6.5-.4-2.8,0-5.7-4-5.7s-4.4,1.6-4,4.4c1.2,14.9-4,30.7-5.7,39.6-.4,2.4-.8,5.3-.8,7.7,0,5.7,1.2,10.9,3.6,15.8-8.9-2.8-48.9.4-48.9,9.7s6.1,2,6.1,4.8c0,6.1-20.2,4.8-19.8,10.9,1.2,12.9,11.3,30.3,26.3,33.9-4.4,2.4-8.1,4.8-10.9,9.3-4.8,6.5-9.3,18.6-9.3,22.6s2.8,2.8,4.4,2.8c3.6,0,11.3-5.7,11.3-4.4-3.6,3.6-10.5,19.8-7.3,25s6.5-.4,10.1-2.8c0,8.1-8.5,8.5-6.5,16.2-2.4-1.6-4-.8-4,2.4,0,7.3,4.4,4.4,4.4,11.7-1.6,7.7-5.3,4.4-8.1,10.5-3.2,8.5,18.6,10.5,27.1,7.3,4.8-2.4,8.9-10.9,8.9-8.1v10.9c0,2.4,2,3.2,4,3.2,6.1,0-6.1,7.7,4.4,7.7s12.5-27.5,18.6-27.5c.8.4,1.2,0,1.2,6.1s8.5.8,1.2,5.3c-3.2,2-2.4,6.9,4,6.9,10.9,0,15.8-18.6,18.6-26.3-.8,15.3,6.1,22.2,9.7,27.1-1.2.4-2.8,3.2-2.4,5.7,1.2,8.1,11.7,2.4,17-1.2-.4,2.8-.8,5.7-.8,8.5,0,10.9,4.8,19.4,17.8,23.8-2,16.2,8.1,25,12.9,25.9-26.7,20.6-6.5,51.7,1.2,54.5-1.2,2.8-1.6,6.1-1.6,8.9,0,17.4,14.5,37.2,32.7,37.2s29.9-17,31.5-29.9c21.8,4.8,34.7-14.5,34.7-30.7s-4.8-22.2-14.1-26.3c4.4-.4,16.2-10.9,16.2-21.8s0-2-.4-3.2c2.8.8,5.7,1.2,8.5,1.2,12.1,0,23-6.5,29.9-14.5,6.5-7.7,8.9-15.3,8.9-23s-1.2-9.7-2.8-14.5c25-4,29.5-21,29.5-36.8s-10.9-37.2-36.4-37.2-10.5,1.2-14.9,4c.8-15.3-17.8-28.7-33.9-27.1,2.8-14.5-20.6-35.9-12.1-40,13.7-6.9,31.1-6.1,46.9-11.3,5.3-1.6,7.7-4,13.3-4,8.5,0,.8,10.1,10.1,10.9s35.5,9.3,35.5,21.8-12.5,29.1-23.4,29.1-20.2-9.3-20.2-19.4,36.4-17.4,24.6-.8c-.8,1.2-3.6,0-6.9,0s-5.7.8-5.7,4.4,3.2,7.3,6.9,7.3,9.7-2,12.9-5.7c2.8-3.2,2.8-4.4.4-6.5,5.7-7.7-1.2-19.4-17.4-19.4ZM286.1,76.5c2.8.8,6.5.8,9.3.4-2,2-2.4,3.6-2.4,6.1s1.2,3.6,3.6,3.6,2.8-.4,2.8-2.4.8-5.7,4-5.7,3.2,2.4,3.2,4.4c0,4.4-4.4,6.9-8.9,6.9-6.5,0-11.7-4.4-11.7-13.3ZM191.2,284.1c-11.7-14.5-12.1-21-12.1-35.9s-.4-7.3-4.8-7.3-5.7,3.2-5.7,7.3c0,8.5-5.7,25.4-9.3,25.4s-1.2,0-1.2-.8c0-6.9-2-14.9-7.3-14.9-10.5,0-14.5,12.5-21.4,24.2.4-2.4,0-5.7.4-8.9.4-2.8.4-4.8,2-8.1s-.4-4.4-2.4-4.4c-10.5.4-11.7,3.6-11.7,5.7,0,4-8.5,8.9-16.2,7.7,1.6-1.6,3.6-4.8,3.6-8.9,0-8.9-10.1-12.9-4-12.9s3.2,0,3.2-1.2c.8-20.6,4.4-18.6,4-25-.4-4.4-8.1,3.6-8.1-1.2,0-8.5,17.8-15.3,21.8-15.3s3.6-2.8,3.6-4.8-2-4-3.6-4c-4.8,0-17,11.7-17.4,6.5-.4-2.8-2.8-3.6-5.3-3.6s-2,0-2.8.4-5.3,1.6-4.8,1.2c4.4-4.4,5.7-7.3,8.5-10.9,3.6-4.8,10.5-8.9,14.1-9.3s4.8-1.6,4.8-4-1.6-4-4-4c-10.1,0-32.3-12.9-25.9-27.5,12.5-.4,17.4-6.1,17.4-9.3s-2.4-5.3-6.5-6.1c6.1-3.2,19.8-4.4,23.4-4.4,19.8.4,26.3,13.3,28.7,18.6.8,2,3.6,4,8.1,4s9.3-6.5,9.3-10.9c-.4-9.7-2-20.2-18.6-19.4.4-2.4-.8-4-2.8-4-4,0-6.5-4.4-6.5-11.3s5.7-20.6,6.1-35.5c2,2,4.4,3.6,6.5,4.4,4,1.2,7.7,2,10.5,2,9.3,0,14.9-2,18.2-.8,4.8,2,9.7,6.1,11.7,9.7,3.6,6.1,6.9,12.5,6.9,21.8s3.2,23.8-1.6,29.5c-2.8,3.6-2,8.9,1.6,11.3-7.7,4-18.2-4-18.2-9.7s3.2-11.3,12.9-22.6c3.6-2.8-5.7-8.5-7.3-2.8s-4,5.3-6.5,5.3c-4-.4-4.4-2-17.4-27.5-1.6-3.2-3.6-3.2-5.7-2.4-2.8,1.2-3.6,2.4-1.2,6.9l13.7,24.6c2.4,4.4,6.9,3.6,8.9,3.6-2,2-3.6,10.9-3.6,15.3s-.4,7.3,3.2,11.3c3.2,3.2,6.9,5.7,17,6.5,13.3.8,31.9-42,36.4-48.9,7.7-12.1,36.8-15.8,44,10.9l-4.8,1.6c0-10.5-8.5-14.5-17.8-14.5s-16.6,3.6-18.6,5.3-1.2,4-.4,5.7c-1.6-.4-3.6.4-4.4,2-2.4,6.5-5.3,10.9-8.5,17.4-2.8,5.3-5.7,10.9-8.1,17-2.4,4.4,7.3,6.1,17,6.1s12.5,1.6,18.6,4.4c10.1,4.8,19,12.1,20.6,22.2-4.8,1.2-5.7,2-10.1,4.8-2-4.8-10.5-10.5-18.6-10.5-3.2-2.4-1.6-3.2-9.3-8.1-8.5-5.7-34.3-10.1-43.6-10.1-22.6,0-26.7-.4-26.7,4.4,0,7.3,4.8,4,12.1,4s16.6-.8,16.2.8c-4,4.4-8.5,11.7-12.1,15.8-8.5,2.4-22.6,2-31.5,0-4.4-.8-7.7,6.1-2,7.3,11.3,2.4,15.3,4,28.3,1.2-1.2,1.6-6.9,9.3-8.1,10.9-6.9,2-15.3.4-19.8-2-2-1.2-4.4.8-4.4,4s12.9,6.1,17,5.7c-.8,1.6-5.3,8.5-7.3,8.1-6.9-2.8-12.9-2.8-19.4-2-2,.4-3.2,2-3.2,4s1.6,3.6,4.4,3.6c3.2-.4,6.5,0,11.7,0-.8,1.6-8.1,7.7-9.7,8.1-2.8.8-7.7.4-10.9-1.6-2-1.6-5.7,0-5.7,3.2s.4,2.4,1.6,2.8c2.4,1.2,6.5,0,6.5,2.4-1.6,2-7.3,5.3-10.5,7.3-5.3,3.6,2.4,8.5,9.7,2.8,25.4-19,50.5-45.2,65.8-66.2-.4,7.3,3.2,29.9,6.1,32.7-19.8,9.3-19.8,46.9,2.8,57.8-2.4,2.4-6.5,4.8-9.7,6.5ZM148,127.4c9.7,0,14.9,6.1,14.9,13.3s-2.8,5.7-4.8,4.8c0-4.8-2.4-11.3-10.1-18.2ZM238.9,118.5c.8,0,2.8.4,3.2-.8,2-3.6,8.9-5.3,13.7-5.3s7.3,8.5,11.7,9.7c-9.7,4.4-24.2,8.5-34.3,8.5.8-2,8.1-9.3,5.7-12.1ZM289.7,213.4c-4,0-6.5-2.8-6.5-6.1s2.4-6.9,6.5-6.9,5.7,2.4,5.7,6.9-2.8,6.1-5.7,6.1ZM300.2,242.5c0,3.6-3.2,6.5-6.5,6.5s-6.5-2.8-6.5-6.5,2.8-7.3,6.5-7.3,6.5,3.6,6.5,7.3ZM284.5,185.9c-2-8.1-12.1-22.2-21.8-27.1l11.7-2c8.9,4.8,12.5,23,10.1,29.1ZM250.6,350.7c-.8,0-2.8-.8-2.8-3.2s.8-2.8,2.8-2.8c8.1,0,14.1-6.1,14.1-12.5s1.2-2.8,3.6-2.8,3.2.4,3.2,3.6c0,8.9-10.5,17.8-21,17.8ZM267.1,369.3c0,4-2.8,6.9-6.1,6.9s-6.1-2.8-6.1-6.9,2.8-6.1,6.1-6.1,6.1,2.8,6.1,6.1ZM239.3,236.8c-.8,0-2.8-.8-2.8-2.8s.8-2.8,2.8-2.8c8.5,0,15.8-6.5,15.8-12.5s0-3.2,2.4-3.2,3.2.4,3.2,3.6c0,9.3-10.9,17.8-21.4,17.8ZM244.1,282.5c0,3.2-2.4,5.7-5.3,5.7s-5.7-2.4-5.7-5.7,2-6.1,5.7-6.1,5.3,2.8,5.3,6.1ZM249.8,204.1c0-3.6,1.2-6.9,5.7-6.9s5.7,2.8,5.7,6.9-2.8,6.5-6.5,6.5-4.8-2.8-4.8-6.5ZM266.7,310.4c0,3.2-2.8,6.9-6.1,6.9s-6.1-3.6-6.1-6.9,2.8-6.5,6.1-6.5,6.1,2.8,6.1,6.5ZM202.1,180.3c.4-3.6-2-4.8-4-4.8,1.2-3.2,2.4-3.6,4.4-3.6,10.1,0,24.6,4.8,28.7,10.5-10.5.4-23.8,12.5-25,29.9-4.4-4.4-5.3-24.6-4-31.9ZM227.9,236c0,4-2.8,6.5-5.7,6.5-4,0-5.3-2.4-5.3-6.5s1.6-5.3,5.3-5.3,5.7,2.8,5.7,5.3ZM214.2,274c-1.2,0-3.2-1.2-3.2-2.8s1.2-2.4,3.2-2.4c8.5,0,14.5-6.5,14.5-12.5s.8-3.2,3.2-3.2,3.2.4,3.2,3.6c0,8.5-10.9,17.4-21,17.4ZM225.9,317.6c-.8.4-2.8-.4-2.8-2.8s.8-2.8,2.8-2.8c8.1,0,14.1-6.5,14.1-12.1s1.2-2.8,2.8-3.2c2.4.4,4.4.8,4.4,4.4,0,7.7-10.9,16.6-21.4,16.6ZM240.5,403.7c-.8,0-2.8-1.6-2.8-3.2s1.2-2.8,2.8-2.8c8.1,0,14.9-6.5,14.9-12.5s.8-2.8,2.8-2.8,3.2.4,3.2,3.6c0,8.9-10.5,17.8-21,17.8ZM263.9,439.2c-.8,0-2.8-.8-2.8-2.8s.8-3.2,2.8-3.2c8.5,0,14.9-6.5,14.9-12.5s.8-2.8,2.8-2.8,3.2.4,3.2,3.6c0,9.3-10.5,17.8-21,17.8ZM280.1,408.5c-3.6,0-6.1-2.8-6.1-6.9s2.4-6.1,6.1-6.1,5.7,2.8,5.7,6.1-2.4,6.9-5.7,6.9ZM282.5,276.4c-.8,0-2.8-.8-2.8-2.8s.8-3.2,2.8-3.2c8.5,0,15.3-4.8,14.9-12.9-.4-5.3,6.5-4.8,6.5-.4.4,10.9-10.5,19.4-21.4,19.4ZM315.6,389.9c2,0,4,.4,4,3.6,0,8.5-10.9,17.8-21.4,17.8s-2.8-1.2-2.8-2.8.8-2.8,2.8-2.8c8.1,0,14.5-6.5,14.5-12.5s.8-3.2,2.8-3.2ZM312.8,378.2c0,2.8-2,6.1-5.7,6.1s-6.1-3.6-6.1-6.9c.4-3.2,2.8-6.1,6.1-6.1s5.7,2.8,5.7,6.9ZM297.8,361.6c-1.2,0-2.8-.8-2.8-3.2s.8-2.8,2.8-2.8c8.5,0,14.5-5.7,14.5-11.7s.8-2.8,2.8-2.8,3.2.4,3.2,3.2c0,8.5-10.5,17.4-20.6,17.4ZM381.8,230.8c3.6,0,6.1,2.8,6.1,6.1s-2.4,6.5-6.1,6.5-6.1-2.8-6.1-6.5,2.8-6.1,6.1-6.1ZM374.2,266.3c8.5,0,14.5-6.1,14.5-12.5s1.2-2.8,3.2-2.8,3.2.4,3.2,3.2c0,8.9-10.9,18.2-21.4,18.2s-2.8-1.2-2.8-3.2c.4-2,1.6-2.8,3.2-2.8ZM360.8,291c3.2,0,6.1,3.2,6.1,6.5s-2.8,6.5-6.1,6.5-6.1-2.8-6.1-6.5,2.4-6.5,6.1-6.5ZM355.2,313.6c0-1.6.8-3.2,2.8-3.2s3.2.4,3.2,4c0,8.5-10.5,17.4-21.4,17.4s-2.8-.8-2.8-2.8,1.6-2.8,2.8-2.8c9.3,0,15.3-6.5,15.3-12.5ZM333.4,205.7c3.2,0,5.7,2.8,5.7,6.5s-2.4,6.5-5.7,6.5-6.1-3.2-6.1-6.5,2-6.5,6.1-6.5ZM328.5,240.9c8.5,0,13.7-6.1,13.7-12.1s.8-3.2,2.8-3.2,3.2.4,3.2,3.6c0,8.5-9.3,17.8-20.2,17.8s-2.4-1.2-2.4-2.8,1.6-3.2,2.8-3.2ZM328.1,278.8c3.2,0,6.1,2.8,6.1,6.9s-2.8,5.7-6.1,5.7-8.1-3.2-8.1-6.5,4-6.1,8.1-6.1ZM315.2,317.6c3.2,0,6.1,2.8,6.1,6.1s-2.8,7.3-6.1,7.3-6.1-3.2-6.1-8.1,2.8-5.3,6.1-5.3ZM351.5,130.2c-18.2,4-39.2,6.5-54.9,15.3-2.4,1.2-3.2,3.6-3.2,6.1,0,7.7,12.5,26.3,12.5,34.3s0,4.8-1.2,8.1l-5.3,3.2c-1.2-4-4.4-6.9-6.9-8.5,3.2-12.1-6.1-43.2-19-40.4-3.6.8-13.7,3.6-20.2,5.3-3.6-1.6-4.8-2-8.5-2.8-7.3-2-12.5-2.4-17.8-2.4h-1.6c.8-2,4-7.3,4.8-8.5,7.3-1.6,9.3-.8,17.8-3.2,6.5-2,48.1-15.8,51.3-17,35.5-14.1,49.3-25.4,63.8-25.4,25,0,23.8,13.3,19.8,25.9-12.1.8-22.2,7.7-31.5,10.1Z"/>
</svg>