<svg width="500" height="500" viewBox="0 0 500 500" fill="none" xmlns="http://www.w3.org/2000/svg">
<path fill-rule="evenodd" clip-rule="evenodd" d="M86.4432 122.362C88.075 122.362 89.6116 121.964 90.9607 121.26C90.827 121.908 90.7568 122.58 90.7568 123.269C90.7568 128.715 95.1943 133.162 100.695 133.162C106.166 133.162 110.634 128.715 110.634 123.269C110.634 121.918 110.362 120.63 109.869 119.458C111.591 121.125 113.944 122.151 116.532 122.151C121.79 122.151 126.045 117.916 126.045 112.682C126.045 107.448 121.79 103.213 116.532 103.213C111.274 103.213 106.989 107.448 106.989 112.682C106.989 113.941 107.237 115.142 107.686 116.24C105.888 114.469 103.416 113.376 100.695 113.376C98.991 113.376 97.3887 113.8 95.9888 114.549C96.107 113.944 96.1689 113.32 96.1689 112.681C96.1689 107.326 91.8228 103 86.4432 103C81.0637 103 76.7175 107.326 76.7175 112.681C76.7175 118.036 81.0637 122.362 86.4432 122.362ZM146.591 121.937C151.728 121.937 155.922 117.792 155.922 112.68C155.922 107.567 151.728 103.422 146.591 103.422C141.455 103.422 137.291 107.567 137.291 112.68C137.291 117.792 141.455 121.937 146.591 121.937ZM372.923 112.684C372.923 116.133 370.097 118.916 366.632 118.916C363.167 118.916 360.371 116.133 360.371 112.684C360.371 109.235 363.167 106.452 366.632 106.452C370.097 106.452 372.923 109.235 372.923 112.684ZM396.72 118.792C400.093 118.792 402.859 116.039 402.859 112.681C402.859 109.323 400.093 106.57 396.72 106.57C393.316 106.57 390.58 109.323 390.58 112.681C390.58 116.039 393.316 118.792 396.72 118.792ZM429.999 115.465C429.999 118.763 427.324 121.425 424.011 121.425C420.698 121.425 418.024 118.763 418.024 115.465C418.024 112.168 420.698 109.475 424.011 109.475C427.324 109.475 429.999 112.168 429.999 115.465ZM399.026 130.412C402.278 130.412 404.923 127.81 404.923 124.573C404.923 121.336 402.278 118.734 399.026 118.734C395.805 118.734 393.161 121.336 393.161 124.573C393.161 127.81 395.805 130.412 399.026 130.412ZM389.432 139.154C389.432 142.3 386.849 144.872 383.688 144.872C380.497 144.872 377.944 142.3 377.944 139.154C377.944 136.008 380.497 133.436 383.688 133.436C386.849 133.436 389.432 136.008 389.432 139.154ZM142.262 172.31C145.393 172.31 147.916 169.799 147.916 166.683C147.916 163.567 145.393 161.056 142.262 161.056C139.132 161.056 136.609 163.567 136.609 166.683C136.609 169.799 139.132 172.31 142.262 172.31ZM156.379 199.229C158.372 198.394 159.782 196.426 159.782 194.15C159.782 191.095 157.29 188.644 154.251 188.644C154.226 188.644 154.2 188.644 154.175 188.645C151.6 184.832 147.232 182.322 142.269 182.322C137.283 182.322 132.898 184.856 130.328 188.699C128.857 187.93 127.183 187.496 125.407 187.496C119.571 187.496 114.83 192.185 114.83 198.024C114.83 203.832 119.571 208.552 125.407 208.552C127.809 208.552 130.026 207.752 131.803 206.405C134.419 209.18 138.138 210.911 142.269 210.911C149.31 210.911 155.154 205.882 156.379 199.229ZM171.633 221.621C171.633 224.586 169.202 227.006 166.223 227.006C163.215 227.006 160.783 224.586 160.783 221.621C160.783 218.626 163.215 216.206 166.223 216.206C169.202 216.206 171.633 218.626 171.633 221.621ZM178.165 254.385C181.114 254.385 183.484 251.995 183.484 249.091C183.484 246.156 181.114 243.796 178.165 243.796C175.248 243.796 172.847 246.156 172.847 249.091C172.847 251.995 175.248 254.385 178.165 254.385ZM195.373 276.563C195.373 279.407 193.033 281.737 190.146 281.737C187.258 281.737 184.918 279.407 184.918 276.563C184.918 273.689 187.258 271.36 190.146 271.36C193.033 271.36 195.373 273.689 195.373 276.563ZM202.118 309.115C204.945 309.115 207.254 306.846 207.254 304.002C207.254 301.188 204.945 298.919 202.118 298.919C199.292 298.919 196.982 301.188 196.982 304.002C196.982 306.846 199.292 309.115 202.118 309.115ZM219.128 331.47C219.128 334.253 216.848 336.492 214.083 336.492C211.287 336.492 209.038 334.253 209.038 331.47C209.038 328.717 211.287 326.448 214.083 326.448C216.848 326.448 219.128 328.717 219.128 331.47ZM226.04 363.904C228.805 363.904 231.024 361.696 231.024 358.943C231.024 356.22 228.805 354.011 226.04 354.011C223.304 354.011 221.086 356.22 221.086 358.943C221.086 361.696 223.304 363.904 226.04 363.904ZM242.935 386.411C242.935 389.103 240.716 391.281 238.012 391.281C235.307 391.281 233.118 389.103 233.118 386.411C233.118 383.718 235.307 381.54 238.012 381.54C240.716 381.54 242.935 383.718 242.935 386.411ZM253.516 381.69C256.191 381.69 258.379 379.511 258.379 376.849C258.379 374.217 256.191 372.039 253.516 372.039C250.872 372.039 248.684 374.217 248.684 376.849C248.684 379.511 250.872 381.69 253.516 381.69ZM270.228 349.38C270.228 352.012 268.07 354.13 265.426 354.13C262.812 354.13 260.655 352.012 260.655 349.38C260.655 346.748 262.812 344.63 265.426 344.63C268.07 344.63 270.228 346.748 270.228 349.38ZM277.374 326.6C279.958 326.6 282.085 324.482 282.085 321.88C282.085 319.278 279.958 317.191 277.374 317.191C274.76 317.191 272.633 319.278 272.633 321.88C272.633 324.482 274.76 326.6 277.374 326.6ZM293.964 294.412C293.964 296.983 291.867 299.071 289.283 299.071C286.67 299.071 284.573 296.983 284.573 294.412C284.573 291.81 286.67 289.722 289.283 289.722C291.867 289.722 293.964 291.81 293.964 294.412ZM301.201 271.54C303.754 271.54 305.821 269.453 305.821 266.912C305.821 264.34 303.754 262.283 301.201 262.283C298.618 262.283 296.551 264.34 296.551 266.912C296.551 269.453 298.618 271.54 301.201 271.54ZM317.7 239.411C317.7 241.952 315.633 244.009 313.11 244.009C310.557 244.009 308.491 241.952 308.491 239.411C308.491 236.87 310.557 234.813 313.11 234.813C315.633 234.813 317.7 236.87 317.7 239.411ZM325.035 216.511C327.558 216.511 329.624 214.454 329.624 211.943C329.624 209.402 327.558 207.375 325.035 207.375C322.482 207.375 320.446 209.402 320.446 211.943C320.446 214.454 322.482 216.511 325.035 216.511ZM341.503 184.442C341.503 186.953 339.466 188.98 336.944 188.98C334.421 188.98 332.354 186.953 332.354 184.442C332.354 181.931 334.421 179.874 336.944 179.874C338.195 179.874 339.326 180.379 340.149 181.196C339.846 180.588 339.676 179.903 339.676 179.178C339.676 176.667 341.713 174.64 344.235 174.64C346.758 174.64 348.794 176.667 348.794 179.178C348.794 181.689 346.758 183.716 344.235 183.716C342.98 183.716 341.845 183.214 341.021 182.4C341.329 183.015 341.503 183.709 341.503 184.442ZM348.794 209.128C348.794 211.608 346.758 213.666 344.235 213.666C341.713 213.666 339.676 211.608 339.676 209.128C339.676 206.617 341.713 204.59 344.235 204.59C346.758 204.59 348.794 206.617 348.794 209.128ZM344.235 243.586C346.758 243.586 348.794 241.559 348.794 239.048C348.794 236.537 346.758 234.51 344.235 234.51C341.713 234.51 339.676 236.537 339.676 239.048C339.676 241.559 341.713 243.586 344.235 243.586ZM348.794 268.999C348.794 271.51 346.758 273.537 344.235 273.537C341.713 273.537 339.676 271.51 339.676 268.999C339.676 266.488 341.713 264.431 344.235 264.431C346.758 264.431 348.794 266.488 348.794 268.999ZM344.242 303.487C346.765 303.487 348.832 301.46 348.832 298.919C348.832 296.408 346.765 294.381 344.242 294.381C341.72 294.381 339.653 296.408 339.653 298.919C339.653 301.46 341.72 303.487 344.242 303.487ZM348.737 332.379C348.737 334.89 346.671 336.947 344.118 336.947C341.565 336.947 339.498 334.89 339.498 332.379C339.498 329.838 341.565 327.781 344.118 327.781C346.671 327.781 348.737 329.838 348.737 332.379ZM338.802 367.503C341.355 367.503 343.452 365.416 343.452 362.874C343.452 360.333 341.355 358.246 338.802 358.246C336.219 358.246 334.152 360.333 334.152 362.874C334.152 365.416 336.219 367.503 338.802 367.503ZM324.662 374.25C324.662 376.821 322.565 378.909 319.982 378.909C317.398 378.909 315.301 376.821 315.301 374.25C315.301 371.678 317.398 369.591 319.982 369.591C322.565 369.591 324.662 371.678 324.662 374.25ZM304.725 389.646C307.339 389.646 309.467 387.558 309.467 384.957C309.467 382.355 307.339 380.267 304.725 380.267C302.111 380.267 300.014 382.355 300.014 384.957C300.014 387.558 302.111 389.646 304.725 389.646ZM339.581 384.959C339.581 387.591 337.454 389.709 334.809 389.709C332.165 389.709 330.038 387.591 330.038 384.959C330.038 382.327 332.165 380.209 334.809 380.209C337.454 380.209 339.581 382.327 339.581 384.959ZM364.871 389.77C367.546 389.77 369.703 387.622 369.703 384.959C369.703 382.297 367.546 380.149 364.871 380.149C362.227 380.149 360.069 382.297 360.069 384.959C360.069 387.622 362.227 389.77 364.871 389.77ZM399.848 384.958C399.848 387.65 397.66 389.829 394.955 389.829C392.25 389.829 390.061 387.65 390.061 384.958C390.061 382.265 392.25 380.087 394.955 380.087C397.66 380.087 399.848 382.265 399.848 384.958ZM424.016 388.891C426.751 388.891 428.97 386.683 428.97 383.93C428.97 381.207 426.751 378.999 424.016 378.999C421.281 378.999 419.062 381.207 419.062 383.93C419.062 386.683 421.281 388.891 424.016 388.891ZM405.568 373.4C405.568 376.153 403.319 378.422 400.553 378.422C397.757 378.422 395.508 376.153 395.508 373.4C395.508 370.617 397.757 368.378 400.553 368.378C403.319 368.378 405.568 370.617 405.568 373.4ZM384.234 364.778C387.061 364.778 389.34 362.479 389.34 359.665C389.34 356.852 387.061 354.583 384.234 354.583C381.408 354.583 379.098 356.852 379.098 359.665C379.098 362.479 381.408 364.778 384.234 364.778ZM385.478 325.753C385.478 328.597 383.138 330.927 380.251 330.927C377.394 330.927 375.054 328.597 375.054 325.753C375.054 322.879 377.394 320.55 380.251 320.55C383.138 320.55 385.478 322.879 385.478 325.753ZM380.251 299.706C383.138 299.706 385.448 297.407 385.448 294.533C385.448 291.659 383.138 289.329 380.251 289.329C377.363 289.329 375.054 291.659 375.054 294.533C375.054 297.407 377.363 299.706 380.251 299.706ZM385.567 264.58C385.567 267.514 383.166 269.874 380.248 269.874C377.331 269.874 374.93 267.514 374.93 264.58C374.93 261.675 377.331 259.316 380.248 259.316C383.166 259.316 385.567 261.675 385.567 264.58ZM380.262 240.045C383.24 240.045 385.672 237.625 385.672 234.66C385.672 231.665 383.24 229.275 380.262 229.275C377.284 229.275 374.852 231.665 374.852 234.66C374.852 237.625 377.284 240.045 380.262 240.045ZM385.746 204.712C385.746 207.737 383.284 210.187 380.245 210.187C377.205 210.187 374.744 207.737 374.744 204.712C374.744 201.686 377.205 199.236 380.245 199.236C383.284 199.236 385.746 201.686 385.746 204.712ZM380.25 180.328C383.35 180.328 385.873 177.817 385.873 174.732C385.873 171.646 383.35 169.135 380.25 169.135C377.15 169.135 374.627 171.646 374.627 174.732C374.627 177.817 377.15 180.328 380.25 180.328ZM344.478 131.074C348.034 131.074 350.89 128.2 350.89 124.691C350.89 121.151 348.034 118.277 344.478 118.277C340.922 118.277 338.065 121.151 338.065 124.691C338.065 128.2 340.922 131.074 344.478 131.074ZM339.092 152.16C339.092 155.76 336.144 158.695 332.527 158.695C328.88 158.695 325.962 155.76 325.962 152.16C325.962 148.53 328.88 145.626 332.527 145.626C336.144 145.626 339.092 148.53 339.092 152.16ZM320.561 186.316C324.3 186.316 327.309 183.321 327.309 179.63C327.309 175.939 324.3 172.914 320.561 172.914C316.853 172.914 313.844 175.939 313.844 179.63C313.844 183.321 316.853 186.316 320.561 186.316ZM315.487 207.101C315.487 210.882 312.417 213.938 308.618 213.938C304.819 213.938 301.719 210.882 301.719 207.101C301.719 203.319 304.819 200.233 308.618 200.233C312.417 200.233 315.487 203.319 315.487 207.101ZM296.637 241.588C300.557 241.588 303.688 238.442 303.688 234.569C303.688 230.697 300.557 227.551 296.637 227.551C292.746 227.551 289.586 230.697 289.586 234.569C289.586 238.442 292.746 241.588 296.637 241.588ZM291.92 262.043C291.92 266.006 288.668 269.213 284.686 269.213C280.705 269.213 277.483 266.006 277.483 262.043C277.483 258.08 280.705 254.843 284.686 254.843C288.668 254.843 291.92 258.08 291.92 262.043ZM272.758 296.861C276.831 296.861 280.143 293.564 280.143 289.51C280.143 285.456 276.831 282.159 272.758 282.159C268.655 282.159 265.342 285.456 265.342 289.51C265.342 293.564 268.655 296.861 272.758 296.861ZM268.344 316.98C268.344 321.155 264.971 324.513 260.777 324.513C259.216 324.513 257.762 324.041 256.554 323.231C256.385 327.348 252.988 330.625 248.81 330.625C244.525 330.625 241.06 327.176 241.06 322.91C241.06 318.645 244.525 315.196 248.81 315.196C250.45 315.196 251.969 315.701 253.22 316.563C253.438 312.584 256.752 309.447 260.777 309.447C264.971 309.447 268.344 312.805 268.344 316.98ZM244.73 295.472C244.73 299.829 241.174 303.368 236.797 303.368C232.421 303.368 228.865 299.829 228.865 295.472C228.865 291.116 232.421 287.576 236.797 287.576C241.174 287.576 244.73 291.116 244.73 295.472ZM224.792 276.109C229.29 276.109 232.907 272.479 232.907 268.032C232.907 263.554 229.29 259.924 224.792 259.924C220.324 259.924 216.677 263.554 216.677 268.032C216.677 272.479 220.324 276.109 224.792 276.109ZM221.122 240.561C221.122 245.129 217.384 248.851 212.794 248.851C208.205 248.851 204.497 245.129 204.497 240.561C204.497 235.993 208.205 232.302 212.794 232.302C217.384 232.302 221.122 235.993 221.122 240.561ZM200.789 221.591C205.5 221.591 209.299 217.779 209.299 213.12C209.299 208.431 205.5 204.65 200.789 204.65C196.108 204.65 192.279 208.431 192.279 213.12C192.279 217.779 196.108 221.591 200.789 221.591ZM197.498 185.651C197.498 190.462 193.578 194.334 188.776 194.334C183.974 194.334 180.083 190.462 180.083 185.651C180.083 180.871 183.974 176.999 188.776 176.999C193.578 176.999 197.498 180.871 197.498 185.651ZM176.778 167.077C181.701 167.077 185.683 163.114 185.683 158.213C185.683 153.312 181.701 149.348 176.778 149.348C171.854 149.348 167.873 153.312 167.873 158.213C167.873 163.114 171.854 167.077 176.778 167.077ZM173.89 130.772C173.89 135.764 169.818 139.817 164.772 139.817C159.758 139.817 155.685 135.764 155.685 130.772C155.685 125.75 159.758 121.696 164.772 121.696C169.818 121.696 173.89 125.75 173.89 130.772ZM119.813 144.355C125.436 144.355 129.964 139.848 129.964 134.251C129.964 128.684 125.436 124.146 119.813 124.146C114.221 124.146 109.662 128.684 109.662 134.251C109.662 139.848 114.221 144.355 119.813 144.355ZM135.651 164.443C135.651 170.161 131.001 174.76 125.287 174.76C119.573 174.76 114.923 170.161 114.923 164.443C114.923 158.756 119.573 154.127 125.287 154.127C131.001 154.127 135.651 158.756 135.651 164.443ZM125.41 238.685C127.938 238.685 130.264 237.818 132.104 236.368C134.68 239.01 138.286 240.65 142.273 240.65C150.084 240.65 156.436 234.357 156.436 226.552C156.436 218.777 150.084 212.454 142.273 212.454C137.449 212.454 133.182 214.865 130.623 218.541C129.078 217.69 127.301 217.205 125.41 217.205C119.453 217.205 114.621 222.015 114.621 227.945C114.621 233.875 119.453 238.685 125.41 238.685ZM130.918 248.408C133.446 244.884 137.583 242.588 142.269 242.588C149.989 242.588 156.22 248.82 156.22 256.504C156.22 264.188 149.989 270.39 142.269 270.39C138.417 270.39 134.936 268.846 132.415 266.344C130.513 267.907 128.074 268.845 125.414 268.845C119.335 268.845 114.411 263.944 114.411 257.894C114.411 251.843 119.335 246.942 125.414 246.942C127.419 246.942 129.299 247.476 130.918 248.408ZM125.402 299.011C128.201 299.011 130.758 297.987 132.721 296.297C135.199 298.673 138.569 300.131 142.281 300.131C149.879 300.131 156.049 294.02 156.049 286.427C156.049 278.864 149.879 272.752 142.281 272.752C137.753 272.752 133.732 274.923 131.222 278.277C129.526 277.248 127.534 276.654 125.402 276.654C119.202 276.654 114.187 281.676 114.187 287.817C114.187 293.989 119.202 299.011 125.402 299.011ZM133.036 326.24C131.015 328.044 128.341 329.141 125.405 329.141C119.084 329.141 113.978 324.058 113.978 317.765C113.978 311.473 119.084 306.39 125.405 306.39C127.661 306.39 129.763 307.038 131.532 308.156C134.012 304.951 137.906 302.882 142.277 302.882C149.754 302.882 155.832 308.933 155.832 316.375C155.832 323.818 149.754 329.868 142.277 329.868C138.709 329.868 135.459 328.49 133.036 326.24ZM123.1 365.839C127.388 365.839 131.137 363.535 133.166 360.112C135.541 363.756 139.664 366.171 144.366 366.171C144.454 366.171 144.542 366.17 144.63 366.169C143.971 367.725 143.606 369.433 143.606 371.224C143.606 376.9 147.239 381.736 152.315 383.554C152.263 384.015 152.237 384.483 152.237 384.957C152.237 391.946 157.951 397.633 164.972 397.633C171.707 397.633 177.239 392.399 177.678 385.803C179.936 387.709 182.856 388.859 186.042 388.859C193.184 388.859 198.989 383.08 198.989 375.971C198.989 368.861 193.184 363.113 186.042 363.113C179.153 363.113 173.508 368.461 173.116 375.22C172.112 374.386 170.977 373.703 169.746 373.206C169.845 372.56 169.896 371.898 169.896 371.224C169.896 364.024 164.03 358.155 156.766 358.155C156.715 358.155 156.664 358.155 156.614 358.155C157.318 356.54 157.708 354.76 157.708 352.89C157.708 345.539 151.721 339.579 144.366 339.579C139.049 339.579 134.473 342.667 132.326 347.139C130.191 344.399 126.851 342.635 123.1 342.635C116.687 342.635 111.459 347.839 111.459 354.253C111.459 356.46 112.085 358.527 113.168 360.286C112.213 360.038 111.211 359.906 110.179 359.906C103.614 359.906 98.2956 365.2 98.2956 371.735C98.2956 372.65 98.4 373.54 98.5976 374.395C96.7382 375.486 95.1926 377.049 94.1257 378.916C94.17 378.497 94.1927 378.071 94.1927 377.64C94.1927 371.014 88.7828 365.629 82.0964 365.629C75.4099 365.629 70 371.014 70 377.64C70 384.296 75.4099 389.681 82.0964 389.681C86.5918 389.681 90.5102 387.246 92.5954 383.629C92.5478 384.066 92.5234 384.51 92.5234 384.96C92.5234 391.706 98.0245 397.212 104.832 397.212C111.61 397.212 117.111 391.706 117.111 384.96C117.111 383.804 116.95 382.685 116.648 381.624C119.887 379.522 122.032 375.884 122.032 371.735C122.032 369.44 121.377 367.299 120.243 365.486C121.158 365.717 122.115 365.839 123.1 365.839ZM147.413 384.956C147.413 391.824 141.821 397.421 134.891 397.421C127.992 397.421 122.4 391.824 122.4 384.956C122.4 378.089 127.992 372.492 134.891 372.492C141.821 372.492 147.413 378.089 147.413 384.956Z" fill="black"/>
</svg>
