<?xml version="1.0" encoding="utf-8"?>
<!-- Generator: Adobe Illustrator 24.3.0, SVG Export Plug-In . SVG Version: 6.00 Build 0)  -->
<svg version="1.1" id="Calque_1" xmlns="http://www.w3.org/2000/svg" xmlns:xlink="http://www.w3.org/1999/xlink" x="0px" y="0px"
	 viewBox="0 0 500 500" style="enable-background:new 0 0 500 500;" xml:space="preserve">
<style type="text/css">
	.st0{fill:#010202;}
</style>
<path class="st0" d="M459.6,239c-6.1,0-11-4.9-11-11s4.9-11,11-11c6.1,0,11-4.9,11-11c0-6.1-4.9-11-11-11c-6.1,0-11,4.9-11,11
	c0,6.1-4.9,11-11,11c-6.1,0-11-4.9-11-11c0-6.1,4.9-11,11-11c6.1,0,11-4.9,11-11c0-6.1-4.9-11-11-11c-6.1,0-11-4.9-11-11
	c0-6.1-4.9-11-11-11s-11,4.9-11,11c0,6.1-4.9,11-11,11c-6.1,0-11-4.9-11-11c0-6.1,4.9-11,11-11c6.1,0,11-4.9,11-11
	c0-6.1-4.9-11-11-11c-6.1,0-11,4.9-11,11c0,6.1-4.9,11-11,11c-6.1,0-11-4.9-11-11c0-6.1-4.9-11-11-11s-11,4.9-11,11
	c0,6.1-4.9,11-11,11c-6.1,0-11,4.9-11,11c0,6.1-4.9,11-11,11c-6.1,0-11-4.9-11-11c0-6.1-4.9-11-11-11s-11,4.9-11,11
	c0,6.1,4.9,11,11,11c6.1,0,11,4.9,11,11c0,6.1-4.9,11-11,11s-11-4.9-11-11c0-6.1-4.9-11-11-11c-6.1,0-11,4.9-11,11
	c0,6.1-4.9,11-11,11s-11-4.9-11-11c0-6.1-4.9-11-11-11c-6.1,0-11-4.9-11-11c0-6.1-4.9-11-11-11c-6.1,0-11-4.9-11-11
	c0-6.1-4.9-11-11-11c-6.1,0-11,4.9-11,11c0,6.1-4.9,11-11,11s-11-4.9-11-11c0-6.1-4.9-11-11-11s-11,4.9-11,11c0,6.1-4.9,11-11,11
	c-6.1,0-11,4.9-11,11c0,6.1-4.9,11-11,11c-6.1,0-11,4.9-11,11c0,6.1-4.9,11-11,11c-6.1,0-11,4.9-11,11c0,6.1,4.9,11,11,11
	c6.1,0,11,4.9,11,11s-4.9,11-11,11c-6.1,0-11-4.9-11-11c0-6.1-4.9-11-11-11s-11,4.9-11,11c0,6.1,4.9,11,11,11c6.1,0,11,4.9,11,11
	c0,6.1-4.9,11-11,11c-6.1,0-11,4.9-11,11c0,6.1,4.9,11,11,11c6.1,0,11,4.9,11,11c0,6.1,4.9,11,11,11c6.1,0,11,4.9,11,11
	s-4.9,11-11,11c-6.1,0-11,4.9-11,11c0,6.1,4.9,11,11,11s11-4.9,11-11c0-6.1,4.9-11,11-11c6.1,0,11,4.9,11,11c0,6.1-4.9,11-11,11
	c-6.1,0-11,4.9-11,11c0,6.1,4.9,11,11,11c6.1,0,11-4.9,11-11c0-6.1,4.9-11,11-11c6.1,0,11,4.9,11,11c0,6.1,4.9,11,11,11
	s11-4.9,11-11c0-6.1,4.9-11,11-11s11,4.9,11,11c0,6.1,4.9,11,11,11c6.1,0,11-4.9,11-11c0-6.1,4.9-11,11-11c6.1,0,11-4.9,11-11
	c0-6.1,4.9-11,11-11s11,4.9,11,11c0,6.1,4.9,11,11,11c6.1,0,11-4.9,11-11c0-6.1-4.9-11-11-11c-6.1,0-11-4.9-11-11
	c0-6.1-4.9-11-11-11c-6.1,0-11-4.9-11-11c0-6.1-4.9-11-11-11c-6.1,0-11-4.9-11-11c0-6.1-4.9-11-11-11c-6.1,0-11,4.9-11,11
	c0,6.1,4.9,11,11,11c6.1,0,11,4.9,11,11c0,6.1-4.9,11-11,11c-6.1,0-11,4.9-11,11c0,6.1-4.9,11-11,11s-11-4.9-11-11
	c0-6.1-4.9-11-11-11c-6.1,0-11-4.9-11-11c0-6.1,4.9-11,11-11c6.1,0,11-4.9,11-11c0-6.1-4.9-11-11-11s-11,4.9-11,11
	c0,6.1-4.9,11-11,11c-6.1,0-11-4.9-11-11c0-6.1,4.9-11,11-11c6.1,0,11-4.9,11-11s-4.9-11-11-11c-6.1,0-11-4.9-11-11s4.9-11,11-11
	c6.1,0,11-4.9,11-11c0-6.1,4.9-11,11-11c6.1,0,11,4.9,11,11c0,6.1,4.9,11,11,11c6.1,0,11-4.9,11-11c0-6.1-4.9-11-11-11
	c-6.1,0-11-4.9-11-11c0-6.1,4.9-11,11-11s11,4.9,11,11c0,6.1,4.9,11,11,11c6.1,0,11,4.9,11,11c0,6.1,4.9,11,11,11
	c6.1,0,11-4.9,11-11c0-6.1,4.9-11,11-11s11,4.9,11,11c0,6.1,4.9,11,11,11c6.1,0,11,4.9,11,11s-4.9,11-11,11c-6.1,0-11,4.9-11,11
	s4.9,11,11,11c6.1,0,11,4.9,11,11c0,6.1-4.9,11-11,11c-6.1,0-11,4.9-11,11c0,6.1,4.9,11,11,11c6.1,0,11,4.9,11,11
	c0,6.1,4.9,11,11,11c6.1,0,11,4.9,11,11c0,6.1,4.9,11,11,11s11-4.9,11-11c0-6.1,4.9-11,11-11c6.1,0,11,4.9,11,11c0,6.1-4.9,11-11,11
	c-6.1,0-11,4.9-11,11c0,6.1,4.9,11,11,11c6.1,0,11-4.9,11-11c0-6.1,4.9-11,11-11c6.1,0,11,4.9,11,11c0,6.1,4.9,11,11,11
	s11-4.9,11-11c0-6.1,4.9-11,11-11c6.1,0,11,4.9,11,11c0,6.1,4.9,11,11,11c6.1,0,11-4.9,11-11c0-6.1,4.9-11,11-11c6.1,0,11-4.9,11-11
	c0-6.1,4.9-11,11-11c6.1,0,11-4.9,11-11s-4.9-11-11-11c-6.1,0-11-4.9-11-11c0-6.1-4.9-11-11-11s-11,4.9-11,11c0,6.1-4.9,11-11,11
	c-6.1,0-11,4.9-11,11c0,6.1-4.9,11-11,11c-6.1,0-11-4.9-11-11c0-6.1-4.9-11-11-11c-6.1,0-11-4.9-11-11c0-6.1-4.9-11-11-11
	c-6.1,0-11,4.9-11,11c0,6.1-4.9,11-11,11c-6.1,0-11-4.9-11-11c0-6.1-4.9-11-11-11c-6.1,0-11-4.9-11-11c0-6.1,4.9-11,11-11
	s11,4.9,11,11c0,6.1,4.9,11,11,11c6.1,0,11-4.9,11-11c0-6.1,4.9-11,11-11c6.1,0,11,4.9,11,11c0,6.1,4.9,11,11,11s11-4.9,11-11
	c0-6.1,4.9-11,11-11c6.1,0,11,4.9,11,11c0,6.1,4.9,11,11,11c6.1,0,11-4.9,11-11c0-6.1,4.9-11,11-11s11,4.9,11,11c0,6.1,4.9,11,11,11
	c6.1,0,11-4.9,11-11c0-6.1-4.9-11-11-11c-6.1,0-11-4.9-11-11c0-6.1,4.9-11,11-11c6.1,0,11,4.9,11,11c0,6.1,4.9,11,11,11
	c6.1,0,11-4.9,11-11S465.7,239,459.6,239z M393.4,239c-6.1,0-11-4.9-11-11c0-6.1-4.9-11-11-11c-6.1,0-11,4.9-11,11
	c0,6.1-4.9,11-11,11s-11-4.9-11-11c0-6.1-4.9-11-11-11c-6.1,0-11,4.9-11,11c0,6.1-4.9,11-11,11c-6.1,0-11-4.9-11-11s4.9-11,11-11
	c6.1,0,11-4.9,11-11c0-6.1,4.9-11,11-11c6.1,0,11-4.9,11-11c0-6.1,4.9-11,11-11s11,4.9,11,11c0,6.1,4.9,11,11,11c6.1,0,11,4.9,11,11
	c0,6.1,4.9,11,11,11c6.1,0,11,4.9,11,11S399.5,239,393.4,239z"/>
</svg>
