<?xml version="1.0" encoding="UTF-8"?>
<svg xmlns="http://www.w3.org/2000/svg" xmlns:xlink="http://www.w3.org/1999/xlink" version="1.1" viewBox="0 0 500 500">
  <defs>
    <style>
      .cls-1 {
        clip-path: url(#clippath);
      }

      .cls-2 {
        fill: none;
      }

      .cls-2, .cls-3, .cls-4 {
        stroke-width: 0px;
      }

      .cls-3 {
        fill: #000;
      }

      .cls-4 {
        fill: #e4e4e4;
      }

      .cls-5 {
        display: none;
      }
    </style>
    <clipPath id="clippath">
      <rect class="cls-2" x="90.5" y="119.7" width="319" height="260.5"/>
    </clipPath>
  </defs>
  <g id="background" class="cls-5">
    <circle class="cls-4" cx="250" cy="250" r="250"/>
  </g>
  <g id="icon">
    <g class="cls-1">
      <g>
        <path class="cls-3" d="M159.5,176c0,2.8-2.2,5-5,5s-5-2.2-5-5,2.2-5,5-5,5,2.2,5,5Z"/>
        <path class="cls-3" d="M170,200.3c0,2.7-2.2,4.9-4.9,4.9s-4.9-2.2-4.9-4.9,2.2-4.9,4.9-4.9,4.9,2.2,4.9,4.9Z"/>
        <path class="cls-3" d="M180.6,224.6c0,2.6-2.2,4.8-4.8,4.8s-4.8-2.1-4.8-4.8,2.2-4.8,4.8-4.8,4.8,2.1,4.8,4.8Z"/>
        <path class="cls-3" d="M191.1,248.9c0,2.6-2.1,4.7-4.7,4.7s-4.7-2.1-4.7-4.7,2.1-4.7,4.7-4.7,4.7,2.1,4.7,4.7Z"/>
        <path class="cls-3" d="M201.6,273.2c0,2.5-2.1,4.6-4.6,4.6s-4.6-2.1-4.6-4.6,2.1-4.6,4.6-4.6,4.6,2.1,4.6,4.6Z"/>
        <path class="cls-3" d="M212.1,297.5c0,2.5-2,4.5-4.6,4.5s-4.6-2-4.6-4.5,2-4.5,4.6-4.5,4.6,2,4.6,4.5Z"/>
        <path class="cls-3" d="M222.6,321.8c0,2.5-2,4.4-4.5,4.4s-4.5-2-4.5-4.4,2-4.4,4.5-4.4,4.5,2,4.5,4.4Z"/>
        <path class="cls-3" d="M233.2,346c0,2.4-2,4.4-4.4,4.4s-4.4-2-4.4-4.4,2-4.4,4.4-4.4,4.4,2,4.4,4.4Z"/>
        <path class="cls-3" d="M243.7,370.3c0,2.4-2,4.3-4.4,4.3s-4.3-1.9-4.3-4.3,1.9-4.3,4.3-4.3,4.4,1.9,4.4,4.3Z"/>
        <path class="cls-3" d="M257.4,361.9c0,2.4-1.9,4.3-4.3,4.3s-4.3-1.9-4.3-4.3,1.9-4.3,4.3-4.3,4.3,1.9,4.3,4.3Z"/>
        <path class="cls-3" d="M267.9,337.6c0,2.3-1.9,4.2-4.3,4.2s-4.2-1.9-4.2-4.2,1.9-4.2,4.2-4.2,4.3,1.9,4.3,4.2Z"/>
        <path class="cls-3" d="M278.4,313.3c0,2.3-1.9,4.2-4.2,4.2s-4.2-1.9-4.2-4.2,1.9-4.1,4.2-4.1,4.2,1.8,4.2,4.1Z"/>
        <path class="cls-3" d="M289,289c0,2.3-1.9,4.1-4.1,4.1s-4.2-1.8-4.2-4.1,1.9-4.1,4.2-4.1,4.1,1.8,4.1,4.1Z"/>
        <path class="cls-3" d="M299.5,264.7c0,2.2-1.8,4.1-4.1,4.1s-4.1-1.8-4.1-4.1,1.8-4.1,4.1-4.1,4.1,1.8,4.1,4.1Z"/>
        <path class="cls-3" d="M310,240.4c0,2.2-1.8,4.1-4.1,4.1s-4.1-1.8-4.1-4.1,1.8-4.1,4.1-4.1,4.1,1.8,4.1,4.1Z"/>
        <path class="cls-3" d="M320.6,216.1c0,2.2-1.8,4-4.1,4s-4.1-1.8-4.1-4,1.8-4,4.1-4,4.1,1.8,4.1,4Z"/>
        <path class="cls-3" d="M331.1,191.8c0,2.2-1.8,4-4,4s-4.1-1.8-4.1-4,1.8-4,4.1-4,4,1.8,4,4Z"/>
        <path class="cls-3" d="M337.5,187.1c0,2.2-1.8,4-4,4s-4-1.8-4-4,1.8-4,4-4,4,1.8,4,4Z"/>
        <path class="cls-3" d="M337.5,213.6c0,2.2-1.8,4-4,4s-4-1.8-4-4,1.8-4,4-4,4,1.8,4,4Z"/>
        <path class="cls-3" d="M337.5,240c0,2.2-1.8,4-4,4s-4-1.8-4-4,1.8-4,4-4,4,1.8,4,4Z"/>
        <path class="cls-3" d="M337.5,266.5c0,2.2-1.8,4-4,4s-4-1.8-4-4,1.8-4,4-4,4,1.8,4,4Z"/>
        <path class="cls-3" d="M337.5,293c0,2.2-1.8,4-4.1,4s-4.1-1.8-4.1-4,1.8-4,4.1-4,4.1,1.8,4.1,4Z"/>
        <path class="cls-3" d="M337.5,322.6c0,2.2-1.8,4-4.1,4s-4.1-1.8-4.1-4,1.8-4.1,4.1-4.1,4.1,1.8,4.1,4.1Z"/>
        <path class="cls-3" d="M332.8,349.5c0,2.2-1.9,4.1-4.1,4.1s-4.1-1.8-4.1-4.1,1.8-4.1,4.1-4.1,4.1,1.8,4.1,4.1Z"/>
        <path class="cls-3" d="M316.2,359.6c0,2.3-1.9,4.1-4.1,4.1s-4.1-1.8-4.1-4.1,1.9-4.1,4.1-4.1,4.1,1.8,4.1,4.1Z"/>
        <path class="cls-3" d="M302.7,369c0,2.3-1.9,4.1-4.2,4.1s-4.2-1.8-4.2-4.1,1.9-4.1,4.2-4.1,4.2,1.8,4.2,4.1Z"/>
        <path class="cls-3" d="M329.4,369c0,2.3-1.9,4.2-4.2,4.2s-4.2-1.9-4.2-4.2,1.9-4.2,4.2-4.2,4.2,1.9,4.2,4.2Z"/>
        <path class="cls-3" d="M356.1,369c0,2.4-1.9,4.3-4.3,4.3s-4.3-1.9-4.3-4.3,1.9-4.3,4.3-4.3,4.3,1.9,4.3,4.3Z"/>
        <path class="cls-3" d="M382.8,369c0,2.4-1.9,4.3-4.3,4.3s-4.3-1.9-4.3-4.3,1.9-4.3,4.3-4.3,4.3,1.9,4.3,4.3Z"/>
        <path class="cls-3" d="M408.6,368.1c0,2.4-2,4.4-4.4,4.4s-4.4-2-4.4-4.4,2-4.4,4.4-4.4,4.4,2,4.4,4.4Z"/>
        <path class="cls-3" d="M387.8,358.8c0,2.4-2,4.4-4.4,4.4s-4.5-2-4.5-4.4,2-4.4,4.5-4.4,4.4,2,4.4,4.4Z"/>
        <path class="cls-3" d="M373.5,346.7c0,2.5-2,4.5-4.5,4.5s-4.6-2-4.6-4.5,2-4.5,4.6-4.5,4.5,2,4.5,4.5Z"/>
        <path class="cls-3" d="M370.1,316.7c0,2.5-2.1,4.6-4.6,4.6s-4.6-2.1-4.6-4.6,2.1-4.6,4.6-4.6,4.6,2.1,4.6,4.6Z"/>
        <path class="cls-3" d="M370,289.1c0,2.5-2,4.6-4.6,4.6s-4.6-2-4.6-4.6,2-4.6,4.6-4.6,4.6,2.1,4.6,4.6Z"/>
        <path class="cls-3" d="M370.1,262.6c0,2.6-2.1,4.7-4.7,4.7s-4.7-2.1-4.7-4.7,2.1-4.7,4.7-4.7,4.7,2.1,4.7,4.7Z"/>
        <path class="cls-3" d="M370.2,236.2c0,2.6-2.2,4.8-4.8,4.8s-4.8-2.1-4.8-4.8,2.2-4.8,4.8-4.8,4.8,2.1,4.8,4.8Z"/>
        <path class="cls-3" d="M370.3,209.7c0,2.7-2.2,4.8-4.9,4.8s-4.9-2.2-4.9-4.8,2.2-4.8,4.9-4.8,4.9,2.2,4.9,4.8Z"/>
        <path class="cls-3" d="M370.4,183.2c0,2.7-2.2,4.9-5,4.9s-5-2.2-5-4.9,2.2-4.9,5-4.9,5,2.2,5,4.9Z"/>
        <path class="cls-3" d="M373.5,151.7c0,2.8-2.3,5.1-5.1,5.1s-5.1-2.3-5.1-5.1,2.3-5.1,5.1-5.1,5.1,2.3,5.1,5.1Z"/>
        <path class="cls-3" d="M387.3,138.8c0,2.9-2.3,5.2-5.2,5.2s-5.2-2.3-5.2-5.2,2.3-5.2,5.2-5.2,5.2,2.3,5.2,5.2Z"/>
        <path class="cls-3" d="M409.5,130.8c0,2.9-2.4,5.3-5.3,5.3s-5.3-2.4-5.3-5.3,2.4-5.3,5.3-5.3,5.3,2.4,5.3,5.3Z"/>
        <path class="cls-3" d="M385.4,128.3c0,3-2.5,5.4-5.4,5.4s-5.4-2.4-5.4-5.4,2.4-5.4,5.4-5.4,5.4,2.4,5.4,5.4Z"/>
        <path class="cls-3" d="M358.9,128.3c0,3-2.5,5.5-5.6,5.5s-5.5-2.5-5.5-5.5,2.5-5.5,5.5-5.5,5.6,2.5,5.6,5.5Z"/>
        <path class="cls-3" d="M339.4,138.9c0,3.1-2.5,5.6-5.7,5.6s-5.7-2.5-5.7-5.6,2.5-5.7,5.7-5.7,5.7,2.5,5.7,5.7Z"/>
        <path class="cls-3" d="M329,163.2c0,3.2-2.6,5.8-5.8,5.8s-5.8-2.6-5.8-5.8,2.6-5.8,5.8-5.8,5.8,2.6,5.8,5.8Z"/>
        <path class="cls-3" d="M318.5,187.5c0,3.3-2.7,5.9-6,5.9s-6-2.6-6-5.9,2.7-5.9,6-5.9,6,2.7,6,5.9Z"/>
        <path class="cls-3" d="M308,211.8c0,3.3-2.7,6-6.1,6s-6.1-2.7-6.1-6,2.7-6.1,6.1-6.1,6.1,2.7,6.1,6.1Z"/>
        <path class="cls-3" d="M297.6,236.1c0,3.4-2.8,6.2-6.2,6.2s-6.2-2.8-6.2-6.2,2.8-6.2,6.2-6.2,6.2,2.8,6.2,6.2Z"/>
        <path class="cls-3" d="M287.1,260.4c0,3.5-2.9,6.3-6.4,6.3s-6.4-2.8-6.4-6.3,2.9-6.4,6.4-6.4,6.4,2.9,6.4,6.4Z"/>
        <path class="cls-3" d="M276.7,284.7c0,3.6-2.9,6.5-6.5,6.5s-6.6-2.9-6.6-6.5,2.9-6.5,6.6-6.5,6.5,2.9,6.5,6.5Z"/>
        <path class="cls-3" d="M266.2,308.9c0,3.7-3,6.7-6.7,6.7s-6.7-3-6.7-6.7,3-6.7,6.7-6.7,6.7,3,6.7,6.7Z"/>
        <path class="cls-3" d="M255.8,314.2c0,3.8-3.1,6.8-6.9,6.8s-6.9-3-6.9-6.8,3.1-6.8,6.9-6.8,6.9,3,6.9,6.8Z"/>
        <path class="cls-3" d="M245.3,289.9c0,3.9-3.2,7-7,7s-7-3.1-7-7,3.2-7,7-7,7,3.1,7,7Z"/>
        <path class="cls-3" d="M234.8,265.7c0,3.9-3.2,7.1-7.2,7.1s-7.2-3.2-7.2-7.1,3.2-7.2,7.2-7.2,7.2,3.2,7.2,7.2Z"/>
        <path class="cls-3" d="M224.4,241.4c0,4-3.3,7.3-7.4,7.3s-7.4-3.3-7.4-7.3,3.3-7.3,7.4-7.3,7.4,3.3,7.4,7.3Z"/>
        <path class="cls-3" d="M213.9,217.1c0,4.1-3.4,7.5-7.5,7.5s-7.5-3.4-7.5-7.5,3.4-7.5,7.5-7.5,7.5,3.3,7.5,7.5Z"/>
        <path class="cls-3" d="M203.5,192.8c0,4.3-3.5,7.7-7.7,7.7s-7.7-3.4-7.7-7.7,3.4-7.7,7.7-7.7,7.7,3.4,7.7,7.7Z"/>
        <path class="cls-3" d="M193,168.6c0,4.3-3.5,7.8-7.9,7.8s-7.9-3.5-7.9-7.8,3.5-7.8,7.9-7.8,7.9,3.5,7.9,7.8Z"/>
        <path class="cls-3" d="M182.6,144.3c0,4.4-3.6,8-8.1,8s-8.1-3.6-8.1-8,3.6-8,8.1-8,8.1,3.6,8.1,8Z"/>
        <path class="cls-3" d="M166.7,128.3c0,4.5-3.7,8.2-8.3,8.2s-8.2-3.7-8.2-8.2,3.7-8.2,8.2-8.2,8.3,3.7,8.3,8.2Z"/>
        <path class="cls-3" d="M140.2,128.3c0,4.6-3.8,8.4-8.4,8.4s-8.5-3.7-8.5-8.4,3.8-8.4,8.5-8.4,8.4,3.7,8.4,8.4Z"/>
        <path class="cls-3" d="M113.7,128.3c0,4.7-3.9,8.6-8.6,8.6s-8.6-3.8-8.6-8.6,3.9-8.6,8.6-8.6,8.6,3.8,8.6,8.6Z"/>
        <path class="cls-3" d="M126.5,137.7c0,4.8-4,8.7-8.8,8.7s-8.8-3.9-8.8-8.7,3.9-8.7,8.8-8.7,8.8,3.9,8.8,8.7Z"/>
        <path class="cls-3" d="M143.6,147.4c0,4.9-4,8.9-9,8.9s-9-4-9-8.9,4-8.9,9-8.9,9,4,9,8.9Z"/>
        <path class="cls-3" d="M148.7,174.1c0,5.1-4.1,9.1-9.2,9.1s-9.2-4.1-9.2-9.1,4.1-9.1,9.2-9.1,9.2,4.1,9.2,9.1Z"/>
        <path class="cls-3" d="M149,203.8c0,5.1-4.2,9.3-9.4,9.3s-9.4-4.2-9.4-9.3,4.2-9.3,9.4-9.3,9.4,4.1,9.4,9.3Z"/>
        <path class="cls-3" d="M149.2,230.2c0,5.2-4.3,9.5-9.6,9.5s-9.6-4.3-9.6-9.5,4.3-9.5,9.6-9.5,9.6,4.3,9.6,9.5Z"/>
        <path class="cls-3" d="M149.3,256.7c0,5.4-4.4,9.7-9.7,9.7s-9.7-4.3-9.7-9.7,4.4-9.7,9.7-9.7,9.7,4.3,9.7,9.7Z"/>
        <path class="cls-3" d="M149.5,283.2c0,5.5-4.4,9.9-9.9,9.9s-9.9-4.4-9.9-9.9,4.4-9.9,9.9-9.9,9.9,4.4,9.9,9.9Z"/>
        <path class="cls-3" d="M149.7,309.6c0,5.6-4.5,10.1-10.1,10.1s-10.1-4.5-10.1-10.1,4.5-10.1,10.1-10.1,10.1,4.5,10.1,10.1Z"/>
        <path class="cls-3" d="M147.9,341.9c0,5.6-4.6,10.2-10.3,10.2s-10.3-4.6-10.3-10.2,4.6-10.3,10.3-10.3,10.3,4.6,10.3,10.3Z"/>
        <path class="cls-3" d="M136.6,357.4c0,5.8-4.7,10.4-10.5,10.4s-10.5-4.7-10.5-10.4,4.7-10.5,10.5-10.5,10.5,4.7,10.5,10.5Z"/>
        <path class="cls-3" d="M111.9,362.6c0,5.9-4.8,10.6-10.7,10.6s-10.7-4.8-10.7-10.6,4.8-10.6,10.7-10.6,10.7,4.8,10.7,10.6Z"/>
        <path class="cls-3" d="M132.2,369c0,6-4.9,10.8-10.9,10.8s-10.9-4.9-10.9-10.8,4.9-10.8,10.9-10.8,10.9,4.9,10.9,10.8Z"/>
        <path class="cls-3" d="M159.1,369c0,6.1-5,11-11.1,11s-11.1-4.9-11.1-11,5-11,11.1-11,11.1,4.9,11.1,11Z"/>
        <path class="cls-3" d="M186,369c0,6.2-5.1,11.2-11.3,11.2s-11.3-5-11.3-11.2,5.1-11.2,11.3-11.2,11.3,5,11.3,11.2Z"/>
        <path class="cls-3" d="M204.8,361.1c0,6.3-5.1,11.4-11.5,11.4s-11.5-5.1-11.5-11.4,5.1-11.4,11.5-11.4,11.5,5.1,11.5,11.4Z"/>
        <path class="cls-3" d="M179,356.9c0,6.4-5.2,11.6-11.6,11.6s-11.7-5.2-11.7-11.6,5.2-11.6,11.7-11.6,11.6,5.2,11.6,11.6Z"/>
        <path class="cls-3" d="M168.2,340.7c0,6.5-5.3,11.7-11.8,11.7s-11.8-5.3-11.8-11.7,5.3-11.8,11.8-11.8,11.8,5.3,11.8,11.8Z"/>
        <path class="cls-3" d="M166.6,308.4c0,6.6-5.4,11.9-12,11.9s-12-5.3-12-11.9,5.4-11.9,12-11.9,12,5.4,12,11.9Z"/>
        <path class="cls-3" d="M166.7,281.9c0,6.7-5.5,12.1-12.2,12.1s-12.2-5.4-12.2-12.1,5.5-12.1,12.2-12.1,12.2,5.4,12.2,12.1Z"/>
        <path class="cls-3" d="M166.9,255.5c0,6.8-5.5,12.3-12.4,12.3s-12.4-5.5-12.4-12.3,5.5-12.3,12.4-12.3,12.4,5.5,12.4,12.3Z"/>
        <path class="cls-3" d="M167.1,229c0,6.9-5.6,12.5-12.5,12.5s-12.5-5.6-12.5-12.5,5.6-12.5,12.5-12.5,12.5,5.6,12.5,12.5Z"/>
        <path class="cls-3" d="M167.3,202.5c0,7-5.7,12.6-12.7,12.6s-12.7-5.6-12.7-12.6,5.7-12.7,12.7-12.7,12.7,5.7,12.7,12.7Z"/>
      </g>
    </g>
  </g>
</svg>