<?xml version="1.0" encoding="UTF-8"?>
<svg id="Calque_1" data-name="Calque 1" xmlns="http://www.w3.org/2000/svg" version="1.1" viewBox="0 0 500 500">
  <defs>
    <style>
      .cls-1 {
        fill: #000;
        stroke-width: 0px;
      }
    </style>
  </defs>
  <path class="cls-1" d="M146.7,233.5c.8-21.7,1.2-43.4,2.4-65.1,1-19.4,3.2-38.7,8.7-57.4,2.1-7.1,4.9-13.9,8.8-20.2,13-21,42.8-24.7,58.4.2,6.4,10.1,9.9,21.4,12.6,32.9,4.3,18.7,6.4,37.7,7.6,56.8,1.4,22.9,1.5,45.8,1.2,68.6-.4,22.2-1.2,44.4-3.9,66.5-1.8,14.5-4.4,28.9-10.5,42.4-3.5,7.7-8.1,14.6-15.5,19.2-11,6.7-22.5,6.9-34.5,2.7-11.9-4.2-18.6-13.4-23.1-24.5-3.9-9.6-5.8-19.6-7.2-29.8-2.5-17.9-3.3-36-3.8-54.1-.3-12.7-.5-25.4-.7-38.1-.1,0-.3,0-.4,0ZM224.9,340.3c.5-1.8.9-3.3,1.2-4.8,5-21.7,7.1-43.9,7.8-66.1.7-22.3.7-44.6.6-66.9,0-18.1-1.3-36.1-4-54.1-1.9-13.1-4.4-26-8.9-38.5-2.4-6.6-5.3-13-10-18.4-7.9-9-18.2-10.2-27.3-2.8-2.2,1.7-4.1,3.9-5.7,6.1-4.6,6.3-7.2,13.5-9.3,20.9-5.3,18.9-7.5,38.2-8.8,57.7-1.6,23.5-1.8,47.1-1.5,70.6.2,20.5.8,41,2.8,61.5,1.2,12.4,2.9,24.6,6.2,36.6,2,7.3,4.6,14.3,9.3,20.4,4,5.2,9.3,8.2,15.8,9.3-5-4.6-8.1-10.1-8.3-17-.2-6.9,2.2-12.7,7.3-17.4,7.7-7.2,22.3-9.1,32.9,2.7Z"/>
  <path class="cls-1" d="M337.1,77.3h11.4c0,.9,0,1.6,0,2.4,0,70.3,0,140.5,0,210.8,0,17.2-.7,34.4-3.6,51.4-1.4,8.3-3.5,16.5-7.9,23.8-6.7,11-16.8,16.4-29.6,17-11.1.5-20.8-2.6-28.8-10.5-5.9-5.8-9.1-13-11.2-20.8-2.8-10.2-3.9-20.6-4.3-31.1-.6-16.7-1.1-33.5-1.1-50.3-.1-63.2,0-126.4,0-189.5s0-2,0-3.2h11.7c0,1,0,1.9,0,2.9,0,68.1,0,136.3,0,204.4,0,16.3.3,32.7,2.4,48.9.8,6.3,1.8,12.6,3.7,18.6,3.1,9.9,9.3,17.2,19.7,20.1,1.2.4,2.6.5,4.2.8-13.9-11-10.6-27.1-3.5-34.4,7.5-7.6,22.3-10.7,33.7,1.3.5-3.6,1.2-6.9,1.4-10.2.8-12.7,2-25.5,2-38.2.2-70.3,0-140.7,0-211s0-2,0-3.1Z"/>
  <path class="cls-1" d="M390.4,213.4c4.6,6.7,9.1,13.1,13.9,19.9-3.9,1.4-7.5,2.7-10.9,3.9-5.3-8.1-10.5-16-15.9-24.2,4-1.5,7.1-3.9,8-8.2.4-2.1.3-4.6-.4-6.7-1.3-3.8-5.4-5.3-10.8-4.5v42.6h-11.5v-51.7c8.1.2,16.3-.9,24.3,1.5,5.3,1.6,9.3,4.7,10.5,10.3,1.4,6.4-1,11.6-5.7,15.8-.4.4-.9.7-1.5,1.2Z"/>
  <path class="cls-1" d="M375,385.1v8.7h-20.1v12.9h19.8v7.1h-19.9v14.1h20.7v8.9h-31.9v-42.4h-16.2v-9.3h47.6Z"/>
  <path class="cls-1" d="M116.2,222v14.3h-11.5v-51.5s.2-.2.3-.2c6.7.3,13.5-.1,20.1,1.1,14.3,2.6,19.8,18.7,10.4,29.3-3.4,3.9-8.1,5.6-13.1,6.4-2,.3-3.9.4-6.2.7ZM115.9,214.6c4.4,0,8.4-.7,10.6-4.7,2.4-4.1,2.3-8.5-.2-12.6-2.4-3.9-6.2-4.6-10.5-4.3v21.5Z"/>
  <path class="cls-1" d="M413.8,373.8c-3.8,0-7.2-.1-10.6,0-1.4,0-2.9.7-4.2,1.4-3.5,1.9-4,5.8-1,8.4,1.7,1.5,3.8,2.5,5.7,3.7,2.1,1.4,4.4,2.5,6.3,4.1,8.1,7.2,5.8,19.3-4.5,23.6-7.7,3.2-15.7,3-23.8,2.3-.4-3.2-.7-6.1-1.1-9,2.9,0,5.6.2,8.3,0,2.8-.3,5.6-.7,8.1-1.7,4.2-1.7,4.8-6.6,1.2-9.5-1.7-1.4-3.7-2.4-5.6-3.6-1.9-1.2-3.9-2.3-5.7-3.8-7.7-6.3-6.7-17.2,2-22.2,3.9-2.2,8.1-3.2,12.5-3.4,2.9-.2,5.9,0,8.9,0,1.5,0,2.4.4,2.5,2.3,0,2.4.6,4.8.9,7.4Z"/>
  <path class="cls-1" d="M309.6,431.9c-3.8,0-7.2-.1-10.5,0-1.4,0-2.9.7-4.2,1.3-3.5,1.8-4,5.7-1.1,8.4,1.2,1.1,2.8,1.9,4.2,2.8,1.9,1.2,4,2.3,5.9,3.5,4.6,3,7,7.3,6.7,12.9-.4,6-3.9,9.9-9.2,12.2-7.6,3.3-15.7,3-23.8,2.3-.4-3.1-.7-6.1-1.1-9,2.9,0,5.6.2,8.3,0,2.7-.3,5.5-.6,7.9-1.6,4.6-1.8,5.1-6.8,1.2-9.8-1.8-1.3-3.8-2.3-5.6-3.5-1.8-1.1-3.7-2.2-5.3-3.5-7.8-6.3-6.8-17.2,1.9-22.2,3.9-2.2,8.1-3.2,12.5-3.4,3.1-.2,6.2,0,9.3,0,1.3,0,2,.5,2,2,.2,2.5.6,4.9,1,7.7Z"/>
  <path class="cls-1" d="M160.8,24.1v9.2h-14.4v42.5h-11.7v-42.4h-14.6v-9.3h40.8Z"/>
  <path class="cls-1" d="M368.6,75.8h-11.9v-42.4h-14.5v-9.2h40.7v9.1h-14.3v42.6Z"/>
  <path class="cls-1" d="M111.4,374.3v42.4h-11.8v-42.3h-14.5v-9.2h40.7v9.1h-14.4Z"/>
  <path class="cls-1" d="M330.4,442h-11.5v-12.2h11.5v12.2Z"/>
</svg>